<svg width="72" height="72" viewBox="0 0 72 72" fill="none" xmlns="http://www.w3.org/2000/svg">
<path d="M36.3309 71.619C55.9337 71.619 71.8249 55.7278 71.8249 36.125C71.8249 16.5222 55.9337 0.631012 36.3309 0.631012C16.7281 0.631012 0.836914 16.5222 0.836914 36.125C0.836914 55.7278 16.7281 71.619 36.3309 71.619Z" fill="#575756"/>
<path d="M27.9302 31.324C27.9302 30.3747 28.2113 29.4466 28.7388 28.6573C29.2662 27.8679 30.016 27.2527 30.8931 26.8894C31.7702 26.5261 32.7354 26.431 33.6665 26.6163C34.5976 26.8015 35.4527 27.2586 36.124 27.9299C36.7953 28.6012 37.2528 29.4565 37.438 30.3876C37.6232 31.3187 37.5279 32.2838 37.1646 33.1609C36.8013 34.038 36.1863 34.7876 35.397 35.3151C34.6076 35.8425 33.6793 36.124 32.73 36.124C32.0996 36.124 31.4754 35.9999 30.8931 35.7586C30.3107 35.5174 29.7817 35.1638 29.3359 34.7181C28.8902 34.2724 28.5366 33.7433 28.2954 33.1609C28.0542 32.5785 27.9302 31.9544 27.9302 31.324ZM24.3301 44.61C24.3301 43.7319 24.5028 42.8624 24.8389 42.0512C25.1749 41.2399 25.6676 40.5028 26.2886 39.8819C26.9095 39.2611 27.6467 38.7686 28.458 38.4327C29.2693 38.0967 30.139 37.9239 31.0171 37.924H34.4438C35.3219 37.9239 36.1917 38.0967 37.0029 38.4327C37.8142 38.7686 38.551 39.2611 39.1719 39.882C39.7928 40.5029 40.2851 41.24 40.6211 42.0512C40.9571 42.8625 41.13 43.7319 41.1299 44.61C41.13 44.7562 41.1013 44.9011 41.0454 45.0362C40.9895 45.1714 40.9076 45.2942 40.8042 45.3977C40.7008 45.5011 40.5785 45.5832 40.4434 45.6392C40.3083 45.6952 40.1633 45.724 40.0171 45.724H25.4438C25.1484 45.724 24.8652 45.6066 24.6562 45.3977C24.4473 45.1888 24.3301 44.9054 24.3301 44.61ZM47.1792 45.724H42.0078C42.2186 45.3592 42.3299 44.9453 42.3301 44.524V44.224C42.3312 43.1425 42.0978 42.0735 41.646 41.0909C41.1942 40.1082 40.5346 39.2352 39.7129 38.532C39.8029 38.532 39.889 38.524 39.979 38.524H42.2788C43.0731 38.524 43.8599 38.6805 44.5938 38.9845C45.3276 39.2885 45.9945 39.7341 46.5562 40.2958C47.1178 40.8575 47.5628 41.5243 47.8667 42.2582C48.1706 42.9921 48.3273 43.7787 48.3271 44.573C48.3272 44.8778 48.2059 45.1701 47.9907 45.3858C47.7755 45.6016 47.4839 45.7232 47.1792 45.724ZM40.5298 36.124C39.9773 36.1246 39.4307 36.0159 38.9204 35.8041C38.4102 35.5923 37.9468 35.2817 37.5571 34.89C38.2265 33.9838 38.6273 32.9073 38.7134 31.784C38.7995 30.6606 38.5673 29.5357 38.0439 28.538C38.5789 28.1454 39.1995 27.8851 39.8545 27.7785C40.5095 27.672 41.1801 27.7221 41.812 27.9248C42.4439 28.1276 43.0191 28.4772 43.4897 28.945C43.9604 29.4128 44.3134 29.9855 44.52 30.6161C44.7267 31.2467 44.7812 31.9173 44.6787 32.5729C44.5762 33.2286 44.3195 33.8506 43.9302 34.388C43.5409 34.9254 43.03 35.3629 42.439 35.6647C41.8479 35.9664 41.1934 36.1238 40.5298 36.124Z" fill="white"/>
</svg>
