<svg width="17" height="20" viewBox="0 0 17 20" fill="none" xmlns="http://www.w3.org/2000/svg">
<path d="M8.4668 9.823C9.41615 9.823 10.3444 9.5415 11.1338 9.01407C11.9231 8.48664 12.5386 7.73698 12.9019 6.8599C13.2652 5.98281 13.36 5.01769 13.1748 4.08658C12.9896 3.15547 12.5326 2.30017 11.8613 1.62888C11.19 0.957588 10.3344 0.50043 9.40332 0.315221C8.47221 0.130012 7.50697 0.225083 6.62988 0.588384C5.7528 0.951684 5.00351 1.56691 4.47607 2.35627C3.94864 3.14562 3.66699 4.07366 3.66699 5.02302C3.66699 5.65336 3.791 6.27754 4.03223 6.8599C4.27345 7.44226 4.62703 7.9714 5.07275 8.41712C5.51848 8.86284 6.04752 9.21639 6.62988 9.45762C7.21225 9.69884 7.83645 9.823 8.4668 9.823ZM6.75293 11.623C5.87484 11.6227 5.00515 11.7955 4.19385 12.1314C3.38255 12.4673 2.64581 12.9598 2.0249 13.5807C1.404 14.2016 0.911106 14.9388 0.575196 15.7501C0.239286 16.5614 0.066632 17.4309 0.0668948 18.309C0.0668947 18.6043 0.184367 18.8875 0.393067 19.0964C0.601766 19.3053 0.884898 19.4227 1.18018 19.423H15.7529C16.0484 19.423 16.3316 19.3056 16.5405 19.0967C16.7494 18.8878 16.8672 18.6044 16.8672 18.309C16.8673 17.4309 16.6944 16.5613 16.3584 15.75C16.0224 14.9387 15.5297 14.2015 14.9087 13.5806C14.2877 12.9597 13.5506 12.4673 12.7393 12.1314C11.9279 11.7955 11.0583 11.6227 10.1802 11.623H6.75293Z" fill="#575756"/>
</svg>
