<svg width="72" height="72" viewBox="0 0 72 72" fill="none" xmlns="http://www.w3.org/2000/svg">
<path d="M36.0001 71.279C55.6029 71.279 71.4941 55.3878 71.4941 35.785C71.4941 16.1822 55.6029 0.290985 36.0001 0.290985C16.3973 0.290985 0.506104 16.1822 0.506104 35.785C0.506104 55.3878 16.3973 71.279 36.0001 71.279Z" fill="#575756"/>
<path d="M39 39.384C40.3886 39.381 41.7408 38.9392 42.8633 38.1217C43.9858 37.3042 44.8211 36.1528 45.25 34.832C45.6789 33.5112 45.6793 32.0887 45.2512 30.7677C44.8231 29.4467 43.9885 28.2948 42.8665 27.4766C41.7444 26.6584 40.3926 26.2158 39.0039 26.212C37.6153 26.2083 36.261 26.6435 35.1345 27.4556C34.0081 28.2677 33.1672 29.4151 32.7319 30.7337C32.2967 32.0524 32.2892 33.4749 32.7109 34.798L26.6631 40.847C26.5796 40.9307 26.5131 41.03 26.468 41.1393C26.4229 41.2486 26.3997 41.3658 26.3999 41.484V44.484C26.3999 44.7227 26.4948 44.9516 26.6636 45.1204C26.8324 45.2892 27.0614 45.384 27.3 45.384H30.3C30.5387 45.384 30.7675 45.2892 30.9363 45.1204C31.1051 44.9516 31.2 44.7227 31.2 44.484V42.984H32.7C32.9386 42.984 33.1676 42.8892 33.3364 42.7204C33.5052 42.5516 33.6001 42.3227 33.6001 42.084V40.584H35.1001C35.2184 40.5844 35.3356 40.5615 35.4451 40.5165C35.5545 40.4716 35.6541 40.4055 35.738 40.322L36.9861 39.073C37.6373 39.2803 38.3166 39.3852 39 39.384ZM40.5 29.784C40.7967 29.784 41.0866 29.872 41.3333 30.0368C41.5799 30.2016 41.7722 30.4359 41.8857 30.71C41.9993 30.984 42.0291 31.2857 41.9712 31.5766C41.9133 31.8676 41.7703 32.1349 41.5605 32.3447C41.3508 32.5544 41.0837 32.6973 40.7927 32.7552C40.5018 32.8131 40.2001 32.7834 39.926 32.6698C39.6519 32.5563 39.4175 32.364 39.2527 32.1174C39.0879 31.8707 39 31.5807 39 31.284C39 30.8862 39.1581 30.5046 39.4395 30.2233C39.7208 29.942 40.1022 29.784 40.5 29.784Z" fill="white"/>
</svg>
