<svg width="52" height="64" viewBox="0 0 52 64" fill="none" xmlns="http://www.w3.org/2000/svg">
<path d="M17.728 6.09601H50.125" stroke="#575756" stroke-width="1.632" stroke-linecap="round" stroke-linejoin="round"/>
<path d="M32.6021 57.816H35.5041" stroke="#575756" stroke-width="2.401" stroke-linecap="round" stroke-linejoin="round"/>
<path d="M17.5229 16.366V4.61101C17.5232 3.8638 17.8202 3.14729 18.3486 2.61903C18.8771 2.09077 19.5939 1.79401 20.3411 1.79401H47.823C48.193 1.79388 48.5595 1.86664 48.9014 2.00815C49.2433 2.14966 49.554 2.35714 49.8157 2.61874C50.0774 2.88033 50.2849 3.19092 50.4265 3.53276C50.5681 3.8746 50.6411 4.24099 50.6411 4.61101V60.071C50.6411 60.441 50.5681 60.8074 50.4265 61.1493C50.2849 61.4911 50.0774 61.8017 49.8157 62.0633C49.554 62.3249 49.2433 62.5324 48.9014 62.6739C48.5595 62.8154 48.193 62.8881 47.823 62.888H20.3411C19.5939 62.888 18.8771 62.5912 18.3486 62.063C17.8202 61.5347 17.5232 60.8182 17.5229 60.071V45.88" stroke="#575756" stroke-width="1.632" stroke-linecap="round" stroke-linejoin="round"/>
<path d="M31.1689 13.366H33.0581C33.8097 13.366 34.5305 13.6646 35.062 14.1961C35.5935 14.7275 35.8921 15.4484 35.8921 16.2V47.16C35.8921 47.9116 35.5935 48.6325 35.062 49.1639C34.5305 49.6954 33.8097 49.994 33.0581 49.994H31.1689" stroke="#575756" stroke-width="1.468" stroke-miterlimit="10"/>
<path d="M35.8921 44.437V18.922L1.11109 18.922V44.437H35.8921Z" stroke="#575756" stroke-width="1.468" stroke-miterlimit="10"/>
<path d="M10.4399 20.19C10.4377 19.7649 10.3995 19.3407 10.3259 18.922H1.11011V27.528C2.22117 27.8013 3.37987 27.8179 4.49829 27.5765C5.61672 27.335 6.66534 26.8419 7.5647 26.1346C8.46405 25.4272 9.19051 24.5243 9.68872 23.4942C10.1869 22.4642 10.4437 21.3342 10.4399 20.19ZM10.4399 43.037C10.4437 41.8928 10.1869 40.7628 9.68872 39.7328C9.19051 38.7027 8.46405 37.7998 7.5647 37.0924C6.66534 36.3851 5.61672 35.892 4.49829 35.6505C3.37987 35.4091 2.22117 35.4257 1.11011 35.699V44.437H10.3101C10.3967 43.9754 10.4401 43.5067 10.4399 43.037Z" stroke="#575756" stroke-width="1.468" stroke-miterlimit="10"/>
<path d="M10.4411 33.636C11.5214 33.636 12.3971 32.7603 12.3971 31.68C12.3971 30.5997 11.5214 29.724 10.4411 29.724C9.36084 29.724 8.48511 30.5997 8.48511 31.68C8.48511 32.7603 9.36084 33.636 10.4411 33.636Z" stroke="#575756" stroke-width="1.468" stroke-miterlimit="10"/>
<path d="M23.5549 36.107C22.9713 36.0367 22.3997 35.8891 21.855 35.668C21.3196 35.4539 20.8152 35.1693 20.355 34.822L21.4121 33.278C21.751 33.5389 22.1098 33.7729 22.4851 33.978C22.8412 34.1651 23.2223 34.2998 23.6169 34.378V32.224C23.1805 32.1067 22.7535 31.9573 22.3391 31.777C22.0059 31.6355 21.699 31.4383 21.4319 31.194C21.1935 30.9753 21.0082 30.7051 20.8899 30.404C20.7612 30.0692 20.6989 29.7126 20.7061 29.354V29.326C20.7008 28.9724 20.7705 28.6216 20.9109 28.297C21.0423 27.9926 21.2373 27.7198 21.4829 27.497C21.7475 27.2614 22.0525 27.0755 22.3831 26.948C22.7562 26.8028 23.1474 26.71 23.5459 26.672V25.884H24.9529V26.699C25.8614 26.8226 26.726 27.1658 27.4719 27.699L26.5659 29.281C26.3009 29.1042 26.0254 28.9436 25.741 28.8C25.468 28.6636 25.181 28.5573 24.885 28.483V30.528C25.7106 30.7046 26.4805 31.0802 27.1279 31.622C27.364 31.8599 27.5482 32.1443 27.6687 32.457C27.7892 32.7698 27.8433 33.1042 27.8279 33.439V33.466C27.8346 33.8093 27.7676 34.1501 27.6313 34.4653C27.4951 34.7804 27.2928 35.0627 27.0381 35.293C26.7718 35.528 26.4673 35.7161 26.1379 35.849C25.7599 35.9985 25.3627 36.0938 24.958 36.132V37.471H23.551L23.5549 36.107ZM24.894 34.444C25.535 34.344 25.855 34.055 25.855 33.575V33.548C25.8652 33.3383 25.7935 33.1328 25.655 32.975C25.4373 32.7763 25.1775 32.6294 24.895 32.545L24.894 34.444ZM23.623 28.363C23.3601 28.3817 23.11 28.4844 22.9099 28.656C22.8381 28.7273 22.7816 28.8125 22.7437 28.9064C22.7057 29.0002 22.687 29.1008 22.689 29.202V29.229C22.6829 29.425 22.7511 29.6161 22.8799 29.764C23.0886 29.9652 23.344 30.1115 23.623 30.19V28.363Z" fill="#575756"/>
<path d="M24.096 40.57C28.607 40.57 32.264 36.5898 32.264 31.68C32.264 26.7702 28.607 22.79 24.096 22.79C19.5849 22.79 15.928 26.7702 15.928 31.68C15.928 36.5898 19.5849 40.57 24.096 40.57Z" stroke="#575756" stroke-width="1.468" stroke-miterlimit="10"/>
</svg>
