<svg width="21" height="20" viewBox="0 0 21 20" fill="none" xmlns="http://www.w3.org/2000/svg">
<path d="M10.4668 19.48C12.3655 19.48 14.2216 18.917 15.8003 17.8621C17.379 16.8072 18.6098 15.3079 19.3364 13.5538C20.063 11.7996 20.2527 9.86935 19.8823 8.00713C19.5119 6.14491 18.598 4.43434 17.2554 3.09175C15.9128 1.74917 14.2021 0.834852 12.3398 0.464434C10.4776 0.0940158 8.54763 0.284128 6.79346 1.01073C5.03929 1.73733 3.53972 2.96781 2.48486 4.54653C1.43 6.12524 0.867188 7.98129 0.867188 9.87999C0.867188 11.1407 1.11521 12.389 1.59766 13.5538C2.0801 14.7185 2.78727 15.7768 3.67871 16.6682C4.57015 17.5596 5.62873 18.2668 6.79346 18.7492C7.95818 19.2317 9.20611 19.48 10.4668 19.48ZM7.23389 6.48C7.37865 6.07055 7.64687 5.71604 8.00146 5.46532C8.35606 5.21459 8.77958 5.07995 9.21387 5.07997H11.3999C11.9214 5.08043 12.4284 5.25304 12.8418 5.57097C13.2552 5.8889 13.5518 6.3344 13.686 6.8383C13.8203 7.34221 13.7843 7.87632 13.584 8.35777C13.3836 8.83923 13.0302 9.24111 12.5781 9.50099L11.3672 10.195C11.3652 10.4337 11.2683 10.6618 11.0981 10.8292C10.928 10.9966 10.6982 11.0895 10.4595 11.0875C10.2208 11.0855 9.99257 10.9888 9.8252 10.8186C9.65782 10.6484 9.56491 10.4187 9.56689 10.18V9.674C9.5671 9.51562 9.60943 9.36008 9.68896 9.22313C9.7685 9.08618 9.88256 8.97266 10.02 8.894L11.6821 7.941C11.7904 7.87893 11.8749 7.78283 11.9229 7.66765C11.9708 7.55247 11.9794 7.42465 11.9473 7.30409C11.9151 7.18354 11.8441 7.07697 11.7451 7.00099C11.6461 6.92502 11.5247 6.88389 11.3999 6.88399H9.21387C9.15193 6.88348 9.09148 6.90255 9.04102 6.93846C8.99055 6.97438 8.95291 7.02532 8.93311 7.084L8.91797 7.12898C8.88272 7.24547 8.82432 7.35362 8.74609 7.44686C8.66787 7.54009 8.57149 7.61646 8.46289 7.6714C8.35429 7.72635 8.23571 7.7587 8.11426 7.7665C7.9928 7.77429 7.87108 7.75737 7.75635 7.71675C7.64162 7.67614 7.53628 7.6127 7.44678 7.53023C7.35727 7.44776 7.2852 7.34799 7.23535 7.23696C7.18551 7.12593 7.15889 7.00595 7.15674 6.88426C7.15459 6.76258 7.17725 6.6417 7.22314 6.52898L7.23779 6.484L7.23389 6.48ZM9.26709 13.48C9.26709 13.2427 9.33738 13.0106 9.46924 12.8133C9.6011 12.616 9.78854 12.4621 10.0078 12.3713C10.2271 12.2805 10.4684 12.2568 10.7012 12.3031C10.9339 12.3494 11.1476 12.4636 11.3154 12.6315C11.4833 12.7993 11.5977 13.0131 11.644 13.2459C11.6903 13.4786 11.6665 13.7199 11.5757 13.9392C11.4849 14.1585 11.3311 14.3459 11.1338 14.4777C10.9365 14.6096 10.7041 14.68 10.4668 14.68C10.1485 14.68 9.8437 14.5536 9.61865 14.3285C9.39361 14.1035 9.26709 13.7983 9.26709 13.48Z" fill="#575756"/>
</svg>
