<svg width="72" height="72" viewBox="0 0 72 72" fill="none" xmlns="http://www.w3.org/2000/svg">
<path d="M35.829 71.619C55.4318 71.619 71.323 55.7278 71.323 36.125C71.323 16.5222 55.4318 0.631012 35.829 0.631012C16.2262 0.631012 0.334961 16.5222 0.334961 36.125C0.334961 55.7278 16.2262 71.619 35.829 71.619Z" fill="#575756"/>
<path d="M31.0288 43.924C30.8697 43.924 30.717 43.8608 30.6045 43.7482C30.492 43.6357 30.4292 43.4831 30.4292 43.324V28.924C30.4292 28.7649 30.492 28.6122 30.6045 28.4997C30.717 28.3872 30.8697 28.324 31.0288 28.324H37.0288V31.324C37.0288 31.6423 37.1553 31.9475 37.3804 32.1725C37.6054 32.3975 37.9107 32.524 38.229 32.524H41.229V43.324C41.229 43.4028 41.2133 43.4808 41.1831 43.5536C41.153 43.6264 41.1089 43.6925 41.0532 43.7482C40.9975 43.804 40.9312 43.8482 40.8584 43.8783C40.7856 43.9085 40.7077 43.924 40.6289 43.924H31.0288ZM31.0288 26.524C30.3923 26.524 29.7821 26.7768 29.332 27.2269C28.8819 27.677 28.6289 28.2875 28.6289 28.924V43.324C28.6289 43.9605 28.8819 44.571 29.332 45.021C29.7821 45.4711 30.3923 45.724 31.0288 45.724H40.6289C41.2654 45.724 41.8761 45.4711 42.3262 45.021C42.7763 44.571 43.0288 43.9605 43.0288 43.324V32.318C43.0296 32.0025 42.9683 31.69 42.8481 31.3983C42.728 31.1066 42.5518 30.8415 42.3291 30.618L38.9292 27.224C38.706 27.001 38.4407 26.8243 38.1489 26.7041C37.8572 26.584 37.5445 26.5228 37.229 26.524H31.0288ZM33.1289 36.124C32.8902 36.124 32.6615 36.2188 32.4927 36.3876C32.3239 36.5564 32.229 36.7853 32.229 37.024C32.229 37.2627 32.3239 37.4916 32.4927 37.6604C32.6615 37.8292 32.8902 37.924 33.1289 37.924H38.5288C38.7675 37.924 38.9967 37.8292 39.1655 37.6604C39.3343 37.4916 39.4292 37.2627 39.4292 37.024C39.4292 36.7853 39.3343 36.5564 39.1655 36.3876C38.9967 36.2188 38.7675 36.124 38.5288 36.124H33.1289ZM33.1289 39.724C32.8902 39.724 32.6615 39.8188 32.4927 39.9876C32.3239 40.1564 32.229 40.3853 32.229 40.624C32.229 40.8627 32.3239 41.0916 32.4927 41.2604C32.6615 41.4292 32.8902 41.524 33.1289 41.524H38.5288C38.7675 41.524 38.9967 41.4292 39.1655 41.2604C39.3343 41.0916 39.4292 40.8627 39.4292 40.624C39.4292 40.3853 39.3343 40.1564 39.1655 39.9876C38.9967 39.8188 38.7675 39.724 38.5288 39.724H33.1289Z" fill="white"/>
</svg>
