<svg width="23" height="21" viewBox="0 0 23 21" fill="none" xmlns="http://www.w3.org/2000/svg">
<path d="M16.8452 3.97803L22.2622 9.396C22.4208 9.55394 22.5465 9.74166 22.6323 9.94836C22.7182 10.1551 22.7622 10.3767 22.7622 10.6005C22.7622 10.8243 22.7182 11.0459 22.6323 11.2526C22.5465 11.4593 22.4208 11.647 22.2622 11.805L16.8452 17.222C16.6353 17.4297 16.3684 17.5708 16.0786 17.6277C15.7888 17.6845 15.4891 17.6546 15.2163 17.5416C14.9435 17.4287 14.7097 17.2377 14.5449 16.9926C14.3802 16.7476 14.2917 16.4593 14.29 16.164V13.424H8.64307C8.45757 13.4243 8.27397 13.3879 8.10254 13.3171C7.93111 13.2462 7.77521 13.1422 7.64404 13.011C7.51287 12.8799 7.40876 12.7241 7.33789 12.5527C7.26702 12.3812 7.23069 12.1975 7.23096 12.012V9.18903C7.23069 9.00353 7.26702 8.81975 7.33789 8.64832C7.40876 8.47688 7.51287 8.32117 7.64404 8.19C7.77521 8.05883 7.93111 7.95484 8.10254 7.88397C8.27397 7.81311 8.45757 7.77671 8.64307 7.77698H14.29V5.03699C14.2914 4.64003 14.4498 4.25978 14.731 3.97955C15.0121 3.69933 15.3931 3.54199 15.79 3.54199C16.1852 3.54389 16.564 3.70043 16.8452 3.97803ZM7.23096 3.54199H4.4082C4.22279 3.54173 4.03904 3.57806 3.86768 3.64886C3.69631 3.71967 3.54034 3.82359 3.40918 3.95465C3.27802 4.08571 3.17395 4.24134 3.10303 4.41266C3.0321 4.58397 2.99596 4.76759 2.99609 4.953V16.247C2.99583 16.4325 3.03216 16.6162 3.10303 16.7877C3.17389 16.9591 3.27801 17.1149 3.40918 17.246C3.54035 17.3772 3.69576 17.4812 3.86719 17.5521C4.03862 17.6229 4.2227 17.6593 4.4082 17.659H7.23096C7.60544 17.659 7.96469 17.8078 8.22949 18.0726C8.49429 18.3374 8.64307 18.6965 8.64307 19.071C8.64307 19.4455 8.49429 19.8047 8.22949 20.0695C7.96469 20.3343 7.60544 20.483 7.23096 20.483H4.4082C3.28492 20.4827 2.20776 20.0363 1.41357 19.2419C0.619386 18.4476 0.172852 17.3703 0.172852 16.247V4.953C0.173117 3.82989 0.619415 2.75284 1.41357 1.95868C2.20773 1.16452 3.28509 0.718283 4.4082 0.718018H7.23096C7.41638 0.718018 7.60017 0.754541 7.77148 0.8255C7.9428 0.89646 8.09838 1.00048 8.22949 1.13159C8.36061 1.26271 8.46468 1.41835 8.53564 1.58966C8.6066 1.76097 8.64307 1.94458 8.64307 2.13C8.64307 2.31543 8.6066 2.49904 8.53564 2.67035C8.46468 2.84166 8.36061 2.9973 8.22949 3.12842C8.09838 3.25953 7.9428 3.36355 7.77148 3.43451C7.60017 3.50547 7.41638 3.54199 7.23096 3.54199Z" fill="#575756"/>
</svg>
