<svg width="15" height="20" viewBox="0 0 15 20" fill="none" xmlns="http://www.w3.org/2000/svg">
<path d="M2.66699 17.512C2.50786 17.512 2.3552 17.4488 2.24268 17.3362C2.13015 17.2237 2.06689 17.0711 2.06689 16.912V2.51203C2.06689 2.3529 2.13015 2.20023 2.24268 2.08771C2.3552 1.97519 2.50786 1.91199 2.66699 1.91199H8.66699V4.91199C8.66699 5.23025 8.79351 5.53546 9.01855 5.7605C9.2436 5.98555 9.54893 6.112 9.86719 6.112H12.8672V16.912C12.8672 16.9908 12.8514 17.0688 12.8213 17.1416C12.7911 17.2144 12.7471 17.2805 12.6914 17.3362C12.6357 17.392 12.5694 17.4362 12.4966 17.4663C12.4238 17.4965 12.3459 17.512 12.2671 17.512H2.66699ZM2.66699 0.112003C2.03047 0.112003 1.41981 0.364858 0.969727 0.814945C0.519639 1.26503 0.26709 1.87551 0.26709 2.51203V16.912C0.26709 17.5485 0.519639 18.159 0.969727 18.6091C1.41981 19.0592 2.03047 19.312 2.66699 19.312H12.2671C12.9036 19.312 13.5138 19.0592 13.9639 18.6091C14.414 18.159 14.667 17.5485 14.667 16.912V5.90503C14.6678 5.58957 14.6064 5.277 14.4863 4.98529C14.3662 4.69359 14.1895 4.42847 13.9668 4.20502L10.5669 0.810978C10.3443 0.58854 10.0799 0.412237 9.78906 0.292118C9.4982 0.171999 9.18676 0.110474 8.87207 0.111027L2.66699 0.112003ZM4.76709 9.71198C4.5284 9.71198 4.29915 9.80681 4.13037 9.97559C3.96159 10.1444 3.86719 10.3733 3.86719 10.612C3.86719 10.8507 3.96159 11.0796 4.13037 11.2484C4.29915 11.4172 4.5284 11.512 4.76709 11.512H10.167C10.4057 11.512 10.6344 11.4172 10.8032 11.2484C10.972 11.0796 11.0669 10.8507 11.0669 10.612C11.0669 10.3733 10.972 10.1444 10.8032 9.97559C10.6344 9.80681 10.4057 9.71198 10.167 9.71198H4.76709ZM4.76709 13.312C4.5284 13.312 4.29915 13.4068 4.13037 13.5756C3.96159 13.7444 3.86719 13.9733 3.86719 14.212C3.86719 14.4507 3.96159 14.6796 4.13037 14.8484C4.29915 15.0172 4.5284 15.112 4.76709 15.112H10.167C10.4057 15.112 10.6344 15.0172 10.8032 14.8484C10.972 14.6796 11.0669 14.4507 11.0669 14.212C11.0669 13.9733 10.972 13.7444 10.8032 13.5756C10.6344 13.4068 10.4057 13.312 10.167 13.312H4.76709Z" fill="#575756"/>
</svg>
