<svg width="72" height="72" viewBox="0 0 72 72" fill="none" xmlns="http://www.w3.org/2000/svg">
<path d="M36.3209 71.619C55.9237 71.619 71.8149 55.7278 71.8149 36.125C71.8149 16.5222 55.9237 0.631012 36.3209 0.631012C16.7181 0.631012 0.826904 16.5222 0.826904 36.125C0.826904 55.7278 16.7181 71.619 36.3209 71.619Z" fill="#575756"/>
<path d="M26.7209 26.524C25.9936 26.5245 25.2963 26.8137 24.782 27.328C24.2677 27.8423 23.9786 28.5397 23.978 29.267V30.639H48.6641V29.267C48.6635 28.5397 48.3744 27.8423 47.8601 27.328C47.3458 26.8137 46.6482 26.5245 45.9209 26.524H26.7209ZM48.6641 34.753H23.978V42.981C23.9786 43.7083 24.2677 44.4057 24.782 44.92C25.2963 45.4343 25.9936 45.7235 26.7209 45.724H45.9209C46.6482 45.7235 47.3458 45.4343 47.8601 44.92C48.3744 44.4057 48.6635 43.7083 48.6641 42.981V34.753ZM28.7781 40.239H31.521C31.7028 40.239 31.8771 40.3112 32.0056 40.4398C32.1342 40.5683 32.2065 40.7427 32.2065 40.9245C32.2065 41.1063 32.1342 41.2807 32.0056 41.4092C31.8771 41.5378 31.7028 41.61 31.521 41.61H28.7781C28.5963 41.61 28.4218 41.5378 28.2932 41.4092C28.1647 41.2807 28.0925 41.1063 28.0925 40.9245C28.0925 40.7427 28.1647 40.5683 28.2932 40.4398C28.4218 40.3112 28.5963 40.239 28.7781 40.239ZM33.5779 40.924C33.5787 40.7424 33.6513 40.5685 33.7798 40.4402C33.9083 40.3118 34.0823 40.2395 34.2639 40.239H39.75C39.9318 40.239 40.1061 40.3112 40.2346 40.4398C40.3632 40.5683 40.4355 40.7427 40.4355 40.9245C40.4355 41.1063 40.3632 41.2807 40.2346 41.4092C40.1061 41.5378 39.9318 41.61 39.75 41.61H34.2639C34.0821 41.6095 33.9081 41.537 33.7795 41.4085C33.651 41.2799 33.5784 41.1058 33.5779 40.924Z" fill="white"/>
</svg>
