<svg width="72" height="72" viewBox="0 0 72 72" fill="none" xmlns="http://www.w3.org/2000/svg">
<path d="M36.317 71.279C55.9198 71.279 71.811 55.3878 71.811 35.785C71.811 16.1822 55.9198 0.290985 36.317 0.290985C16.7142 0.290985 0.822998 16.1822 0.822998 35.785C0.822998 55.3878 16.7142 71.279 36.317 71.279Z" fill="#575756"/>
<path d="M33.3159 31.584V33.384H39.3159V31.584C39.3159 30.7884 38.9999 30.0253 38.4373 29.4627C37.8746 28.9001 37.1116 28.584 36.3159 28.584C35.5203 28.584 34.7572 28.9001 34.1946 29.4627C33.632 30.0253 33.3159 30.7884 33.3159 31.584ZM30.916 33.384V31.584C30.916 30.1518 31.4849 28.7783 32.4976 27.7656C33.5103 26.7529 34.8837 26.184 36.3159 26.184C37.7481 26.184 39.1216 26.7529 40.1343 27.7656C41.147 28.7783 41.7161 30.1518 41.7161 31.584V33.384H42.3159C42.9524 33.384 43.5629 33.6369 44.0129 34.0869C44.463 34.537 44.7161 35.1475 44.7161 35.784V42.984C44.7161 43.6205 44.463 44.231 44.0129 44.6811C43.5629 45.1311 42.9524 45.384 42.3159 45.384H30.3159C30.0007 45.384 29.6886 45.3219 29.3975 45.2013C29.1063 45.0807 28.8418 44.9039 28.6189 44.6811C28.396 44.4582 28.2192 44.1936 28.0986 43.9024C27.978 43.6113 27.916 43.2992 27.916 42.984V35.784C27.916 35.4688 27.978 35.1568 28.0986 34.8656C28.2192 34.5744 28.396 34.3098 28.6189 34.0869C28.8418 33.8641 29.1063 33.6873 29.3975 33.5667C29.6886 33.4461 30.0007 33.384 30.3159 33.384H30.916Z" fill="white"/>
</svg>
