<svg width="46" height="46" viewBox="0 0 46 46" fill="none" xmlns="http://www.w3.org/2000/svg">
<path d="M22.944 0.252014H22.943C10.3962 0.252014 0.224976 10.4232 0.224976 22.97V22.971C0.224976 35.5178 10.3962 45.689 22.943 45.689H22.944C35.4908 45.689 45.662 35.5178 45.662 22.971V22.97C45.662 10.4232 35.4908 0.252014 22.944 0.252014Z" fill="white"/>
<path d="M22.9441 22.97C23.8934 22.97 24.8215 22.6885 25.6108 22.1611C26.4002 21.6336 27.0154 20.884 27.3787 20.0069C27.742 19.1298 27.8371 18.1647 27.6519 17.2336C27.4666 16.3025 27.0094 15.4472 26.3381 14.7759C25.6668 14.1046 24.8115 13.6475 23.8804 13.4623C22.9493 13.277 21.9843 13.3721 21.1072 13.7354C20.2301 14.0987 19.4803 14.7139 18.9529 15.5033C18.4255 16.2926 18.144 17.2207 18.144 18.17C18.144 19.4431 18.6496 20.664 19.5498 21.5641C20.45 22.4643 21.6711 22.97 22.9441 22.97ZM21.23 24.77C20.3518 24.7699 19.4822 24.9428 18.6709 25.2788C17.8596 25.6148 17.1225 26.1074 16.5016 26.7284C15.8807 27.3494 15.3883 28.0866 15.0524 28.8979C14.7165 29.7093 14.5437 30.5789 14.5439 31.457C14.5439 31.7522 14.6613 32.0353 14.87 32.244C15.0787 32.4528 15.3618 32.57 15.657 32.57H30.23C30.3762 32.5702 30.5211 32.5415 30.6562 32.4856C30.7914 32.4297 30.9141 32.3478 31.0176 32.2444C31.121 32.141 31.2033 32.0183 31.2593 31.8832C31.3153 31.7481 31.344 31.6033 31.344 31.457C31.3441 30.5788 31.1712 29.7092 30.8352 28.8979C30.4992 28.0865 30.0067 27.3493 29.3857 26.7283C28.7648 26.1073 28.0274 25.6148 27.2161 25.2788C26.4047 24.9428 25.5352 24.7699 24.657 24.77H21.23Z" fill="#292937"/>
</svg>
