<svg width="46" height="46" viewBox="0 0 46 46" fill="none" xmlns="http://www.w3.org/2000/svg">
<path d="M22.9451 0.431H22.9441C10.3973 0.431 0.226074 10.6022 0.226074 23.149V23.15C0.226074 35.6968 10.3973 45.868 22.9441 45.868H22.9451C35.4919 45.868 45.6631 35.6968 45.6631 23.15V23.149C45.6631 10.6022 35.4919 0.431 22.9451 0.431Z" fill="#292937"/>
<path d="M22.9438 23.149C23.8932 23.149 24.8215 22.8675 25.6108 22.3401C26.4002 21.8126 27.0151 21.063 27.3784 20.1859C27.7417 19.3088 27.8371 18.3437 27.6519 17.4126C27.4666 16.4815 27.0092 15.6262 26.3379 14.9549C25.6666 14.2836 24.8115 13.8265 23.8804 13.6412C22.9493 13.456 21.984 13.5511 21.1069 13.9144C20.2298 14.2777 19.4806 14.8929 18.9531 15.6823C18.4257 16.4716 18.144 17.3997 18.144 18.349C18.144 19.6221 18.6496 20.843 19.5498 21.7431C20.45 22.6433 21.6708 23.149 22.9438 23.149ZM21.23 24.949C20.3519 24.9489 19.4826 25.1217 18.6714 25.4577C17.8601 25.7936 17.1228 26.2861 16.502 26.907C15.8811 27.5279 15.3887 28.265 15.0527 29.0762C14.7168 29.8875 14.5438 30.757 14.5439 31.635C14.5439 31.9303 14.6614 32.2135 14.8701 32.4224C15.0788 32.6313 15.3619 32.7487 15.6572 32.749H30.23C30.5254 32.749 30.8087 32.6316 31.0176 32.4227C31.2265 32.2138 31.3442 31.9305 31.3442 31.635C31.3442 30.7569 31.171 29.8874 30.835 29.0762C30.4989 28.2649 30.0062 27.5278 29.3853 26.907C28.7643 26.2861 28.0271 25.7936 27.2158 25.4577C26.4045 25.1217 25.5353 24.9489 24.6572 24.949H21.23Z" fill="white"/>
</svg>
