<svg width="25" height="20" viewBox="0 0 25 20" fill="none" xmlns="http://www.w3.org/2000/svg">
<path d="M2.86719 0.0570068C2.13986 0.0575366 1.44252 0.346664 0.928223 0.860962C0.413925 1.37526 0.124553 2.07266 0.124023 2.79999V4.172H24.8091V2.79999C24.8086 2.07283 24.5195 1.3756 24.0054 0.861328C23.4913 0.347059 22.794 0.0578013 22.0669 0.0570068H2.86719ZM24.8091 8.28601H0.124023V16.515C0.124818 17.2422 0.413954 17.9393 0.928223 18.4534C1.44249 18.9675 2.14003 19.2565 2.86719 19.257H22.0669C22.7939 19.2562 23.4908 18.9671 24.0049 18.453C24.5189 17.9389 24.8083 17.242 24.8091 16.515V8.28601ZM4.92383 13.772H7.66699C7.84427 13.7787 8.01223 13.8539 8.13525 13.9818C8.25828 14.1096 8.32666 14.2801 8.32666 14.4575C8.32666 14.6349 8.25828 14.8054 8.13525 14.9332C8.01223 15.061 7.84427 15.1362 7.66699 15.143H4.92383C4.8316 15.1465 4.73956 15.1314 4.65332 15.0985C4.56708 15.0656 4.48837 15.0157 4.42188 14.9517C4.35538 14.8877 4.30273 14.811 4.2666 14.7261C4.23047 14.6411 4.21191 14.5498 4.21191 14.4575C4.21191 14.3652 4.23047 14.2739 4.2666 14.189C4.30273 14.104 4.35538 14.0273 4.42188 13.9633C4.48837 13.8993 4.56708 13.8493 4.65332 13.8165C4.73956 13.7836 4.8316 13.7684 4.92383 13.772ZM9.72412 14.457C9.72465 14.2755 9.79694 14.1016 9.92529 13.9732C10.0536 13.8449 10.2277 13.7725 10.4092 13.772H15.895C15.9872 13.7684 16.0793 13.7836 16.1655 13.8165C16.2518 13.8493 16.3305 13.8993 16.397 13.9633C16.4635 14.0273 16.5161 14.104 16.5522 14.189C16.5884 14.2739 16.6074 14.3652 16.6074 14.4575C16.6074 14.5498 16.5884 14.6411 16.5522 14.7261C16.5161 14.811 16.4635 14.8877 16.397 14.9517C16.3305 15.0157 16.2518 15.0656 16.1655 15.0985C16.0793 15.1314 15.9872 15.1465 15.895 15.143H10.4092C10.2275 15.1425 10.0532 15.07 9.9248 14.9414C9.79643 14.8128 9.72439 14.6387 9.72412 14.457Z" fill="#575756"/>
</svg>
