<svg width="47" height="32" viewBox="0 0 47 32" fill="none" xmlns="http://www.w3.org/2000/svg">
<path d="M46.0591 4.534V27.374C46.0591 27.8006 45.975 28.2229 45.8118 28.6169C45.6485 29.011 45.4093 29.369 45.1077 29.6707C44.8061 29.9723 44.448 30.2115 44.054 30.3748C43.6599 30.538 43.2376 30.622 42.811 30.622H4.146C3.28955 30.6196 2.46888 30.2783 1.86328 29.6727C1.25768 29.0671 0.916438 28.2465 0.914062 27.39V4.534C0.9167 3.67338 1.25962 2.84878 1.86816 2.24023C2.47671 1.63169 3.3015 1.28865 4.16211 1.28601H42.811C43.6725 1.28601 44.4985 1.62819 45.1077 2.2373C45.7168 2.84642 46.0591 3.67257 46.0591 4.534Z" stroke="#575756" stroke-width="1.632" stroke-miterlimit="10"/>
<path d="M17.8811 10.371C18.0881 10.5733 18.214 10.8443 18.2351 11.133C18.2297 11.277 18.1956 11.4185 18.1348 11.5492C18.074 11.6799 17.9878 11.7971 17.8811 11.894" stroke="#575756" stroke-width="0.898" stroke-linecap="round" stroke-linejoin="round"/>
<path d="M18.8411 9.15302C19.0969 9.40491 19.3 9.70514 19.4387 10.0363C19.5774 10.3675 19.6489 10.7229 19.6489 11.082C19.6489 11.441 19.5774 11.7965 19.4387 12.1277C19.3 12.4589 19.0969 12.7591 18.8411 13.011" stroke="#575756" stroke-width="0.898" stroke-linecap="round" stroke-linejoin="round"/>
<path d="M20.1001 8.08698C20.4929 8.46859 20.803 8.92682 21.0115 9.43323C21.22 9.93964 21.3223 10.4835 21.312 11.031C21.31 12.1334 20.8748 13.1907 20.1001 13.975" stroke="#575756" stroke-width="0.898" stroke-linecap="round" stroke-linejoin="round"/>
<path d="M21.113 7.07202C21.6414 7.59753 22.0606 8.22225 22.3467 8.91034C22.6328 9.59843 22.7803 10.3363 22.7803 11.0815C22.7803 11.8267 22.6328 12.5645 22.3467 13.2526C22.0606 13.9407 21.6414 14.5655 21.113 15.091" stroke="#575756" stroke-width="0.898" stroke-linecap="round" stroke-linejoin="round"/>
<path d="M13.1851 14.635H6.26709C5.92537 14.6385 5.59583 14.5073 5.3501 14.2698C5.10437 14.0324 4.96223 13.7077 4.9541 13.366V8.95002C4.96223 8.60838 5.10437 8.28364 5.3501 8.04615C5.59583 7.80866 5.92537 7.67752 6.26709 7.68104H13.1851C13.5268 7.67752 13.8561 7.80866 14.1018 8.04615C14.3475 8.28364 14.4899 8.60838 14.498 8.95002V13.366C14.4823 13.7051 14.3376 14.0253 14.0935 14.2612C13.8494 14.4971 13.5245 14.6308 13.1851 14.635Z" stroke="#575756" stroke-width="0.898" stroke-linecap="round" stroke-linejoin="round"/>
<path d="M14.1441 10.117H11.822C11.7621 10.1169 11.7026 10.1286 11.6472 10.1516C11.5918 10.1745 11.5416 10.2082 11.4993 10.2507C11.457 10.2932 11.4236 10.3436 11.4009 10.3991C11.3782 10.4546 11.3666 10.514 11.367 10.574V14.33" stroke="#575756" stroke-width="0.898" stroke-linecap="round" stroke-linejoin="round"/>
<path d="M9.19604 14.28V7.98602" stroke="#575756" stroke-width="0.898" stroke-linecap="round" stroke-linejoin="round"/>
<path d="M5.25708 9.96503H8.89308" stroke="#575756" stroke-width="0.898" stroke-linecap="round" stroke-linejoin="round"/>
<path d="M5.25708 12.3H8.89308" stroke="#575756" stroke-width="0.898" stroke-linecap="round" stroke-linejoin="round"/>
<path d="M11.3669 12.3H14.4979" stroke="#575756" stroke-width="0.898" stroke-linecap="round" stroke-linejoin="round"/>
</svg>
