<svg width="52" height="50" viewBox="0 0 52 50" fill="none" xmlns="http://www.w3.org/2000/svg">
<path d="M10.981 5.41499C14.4735 3.58727 18.3117 2.51545 22.2458 2.26924C26.18 2.02303 30.1218 2.608 33.8149 3.98604C39.2719 6.07604 44.9149 10.068 49.7679 18.976" stroke="white" stroke-width="3.201" stroke-linecap="round" stroke-linejoin="round"/>
<path d="M15.24 43.984C18.1335 42.9573 20.5986 40.9887 22.24 38.394C23.8365 35.7015 24.5795 32.5883 24.371 29.465" stroke="white" stroke-width="3.201" stroke-linecap="round" stroke-linejoin="round"/>
<path d="M24.3699 46.719C25.9136 45.5579 27.2296 44.1219 28.2519 42.483C29.6147 40.2315 30.563 37.7541 31.0519 35.1681C31.6915 32.5946 31.6028 29.894 30.796 27.368C30.2394 25.7047 29.0597 24.3219 27.5049 23.51C25.8226 22.6564 23.8792 22.4723 22.0665 22.9949C20.2538 23.5175 18.7067 24.7078 17.737 26.326C16.626 28.272 16.737 30.3751 16.123 32.4391C15.717 33.8292 14.8551 35.0422 13.676 35.883C12.7713 36.5815 11.7174 37.0615 10.5967 37.2858C9.47604 37.5101 8.3187 37.4725 7.21491 37.1761C6.02023 36.7744 4.95055 36.069 4.11078 35.1292C3.27102 34.1893 2.69012 33.0472 2.42499 31.815C2.07725 29.6939 2.2509 27.5201 2.93097 25.481C3.31323 24.1661 3.80524 22.8856 4.40192 21.653C5.86245 18.2752 8.19514 15.3466 11.1607 13.1676C14.1263 10.9886 17.618 9.63755 21.2779 9.25302C25.8708 8.69462 30.5247 9.55221 34.6169 11.711C36.8545 12.9019 38.8643 14.4784 40.5539 16.368C42.6812 18.801 44.1869 21.7136 44.942 24.856C46.377 30.711 45.4469 36.9301 43.7139 42.6161" stroke="white" stroke-width="3.201" stroke-linecap="round" stroke-linejoin="round"/>
<path d="M33.2191 47.684C35.8999 43.6124 37.7177 39.0345 38.5601 34.233C39.2146 30.447 38.5718 26.5511 36.736 23.176C35.4801 20.9486 33.6647 19.0875 31.4691 17.7769C29.2734 16.4662 26.7737 15.7514 24.2171 15.703C22.1708 15.6423 20.1344 16.0101 18.2386 16.7828C16.3428 17.5555 14.6295 18.716 13.2086 20.1898C11.7877 21.6636 10.6905 23.4182 9.98761 25.341C9.28473 27.2638 8.9916 29.3122 9.12701 31.355" stroke="white" stroke-width="3.201" stroke-linecap="round" stroke-linejoin="round"/>
</svg>
