<svg width="19" height="20" viewBox="0 0 19 20" fill="none" xmlns="http://www.w3.org/2000/svg">
<path d="M9.46562 0.0520024C9.30335 0.051871 9.14291 0.0837161 8.99296 0.145722C8.84301 0.207728 8.70687 0.298683 8.59208 0.413376C8.47729 0.52807 8.38614 0.664246 8.32401 0.814148C8.26189 0.964051 8.22978 1.12474 8.22978 1.287V2.028C6.83501 2.31343 5.58171 3.07166 4.68144 4.17455C3.78116 5.27743 3.28921 6.65732 3.28886 8.08099V8.80701C3.28739 10.6225 2.62144 12.3747 1.41679 13.733L1.13065 14.053C0.972128 14.231 0.868638 14.4511 0.832314 14.6867C0.795991 14.9222 0.828519 15.1633 0.926064 15.3808C1.02361 15.5983 1.18203 15.7829 1.38212 15.9125C1.58221 16.0421 1.81563 16.111 2.05399 16.111H16.8777C17.116 16.1108 17.3492 16.0417 17.5491 15.9121C17.749 15.7825 17.9073 15.5978 18.0047 15.3803C18.1021 15.1629 18.1348 14.9219 18.0984 14.6864C18.0621 14.4509 17.9581 14.2309 17.7996 14.053L17.514 13.733C16.3087 12.3751 15.6426 10.6227 15.6419 8.80701V8.08099C15.6415 6.65732 15.1496 5.27743 14.2493 4.17455C13.349 3.07166 12.0957 2.31343 10.701 2.028V1.287C10.7011 1.12478 10.6692 0.964121 10.6072 0.814225C10.5452 0.664328 10.4539 0.528144 10.3392 0.413437C10.2244 0.298731 10.0887 0.207755 9.93876 0.145737C9.78886 0.0837191 9.62783 0.0518708 9.46562 0.0520024ZM11.2137 19.095C11.4431 18.8653 11.6249 18.5925 11.7488 18.2924C11.8727 17.9923 11.9364 17.6707 11.9358 17.346H6.99979C7.00026 17.8346 7.14521 18.3121 7.41679 18.7183C7.68837 19.1244 8.07433 19.441 8.52567 19.6281C8.97702 19.8152 9.47363 19.8645 9.95292 19.7696C10.4322 19.6747 10.873 19.44 11.219 19.095H11.2137Z" fill="#575756"/>
</svg>
