<svg width="19" height="21" viewBox="0 0 19 21" fill="none" xmlns="http://www.w3.org/2000/svg">
<path d="M9.4668 0.885987C9.64619 0.886266 9.82348 0.924795 9.98682 0.998993L17.2959 4.099C17.735 4.28113 18.1106 4.58912 18.375 4.98416C18.6394 5.3792 18.7812 5.84363 18.7822 6.319C18.7632 10.17 17.1822 17.219 10.4912 20.419C10.1715 20.5725 9.82097 20.6522 9.46631 20.6522C9.11165 20.6522 8.76161 20.5725 8.44189 20.419C1.75389 17.219 0.169879 10.172 0.150879 6.319C0.152112 5.84355 0.293997 5.37907 0.558594 4.98404C0.82319 4.58901 1.19898 4.28109 1.63818 4.099L8.9502 0.998993C9.11234 0.924412 9.28832 0.885854 9.4668 0.885987Z" fill="#575756"/>
</svg>
