<svg width="52" height="53" viewBox="0 0 52 53" fill="none" xmlns="http://www.w3.org/2000/svg">
<path d="M26.1841 52.229C40.4463 52.229 52.0081 40.6672 52.0081 26.405C52.0081 12.1428 40.4463 0.580994 26.1841 0.580994C11.9219 0.580994 0.360107 12.1428 0.360107 26.405C0.360107 40.6672 11.9219 52.229 26.1841 52.229Z" fill="#575756"/>
<path d="M18.718 18.938C18.1524 18.9385 17.61 19.1634 17.21 19.5633C16.8099 19.9632 16.5848 20.5053 16.584 21.071V22.138H35.7839V21.071C35.7834 20.5054 35.5586 19.9633 35.1587 19.5634C34.7588 19.1635 34.2164 18.9385 33.6509 18.938H18.718ZM35.7839 25.338H16.584V31.738C16.5845 32.3037 16.8096 32.8461 17.2097 33.246C17.6098 33.646 18.1523 33.8707 18.718 33.871H33.6509C34.2165 33.8707 34.759 33.6459 35.1589 33.246C35.5589 32.846 35.7837 32.3036 35.7839 31.738V25.338ZM20.3181 29.605H22.4509C22.5923 29.605 22.7279 29.6612 22.8279 29.7611C22.9278 29.8611 22.9839 29.9966 22.9839 30.138C22.9839 30.2794 22.9278 30.4149 22.8279 30.5149C22.7279 30.6148 22.5923 30.671 22.4509 30.671H20.3181C20.1768 30.671 20.0411 30.6148 19.9412 30.5149C19.8412 30.4149 19.7849 30.2794 19.7849 30.138C19.7849 29.9966 19.8412 29.8611 19.9412 29.7611C20.0411 29.6612 20.1768 29.605 20.3181 29.605ZM24.051 30.138C24.0516 29.9968 24.1079 29.8616 24.2078 29.7617C24.3076 29.6619 24.4428 29.6055 24.584 29.605H28.8511C28.9924 29.605 29.1278 29.6612 29.2278 29.7611C29.3277 29.8611 29.384 29.9966 29.384 30.138C29.384 30.2794 29.3277 30.4149 29.2278 30.5149C29.1278 30.6148 28.9924 30.671 28.8511 30.671H24.584C24.4428 30.6705 24.3076 30.6141 24.2078 30.5143C24.1079 30.4144 24.0516 30.2792 24.051 30.138Z" fill="white"/>
</svg>
