<svg width="72" height="72" viewBox="0 0 72 72" fill="none" xmlns="http://www.w3.org/2000/svg">
<path d="M36.317 71.279C55.9198 71.279 71.811 55.3878 71.811 35.785C71.811 16.1822 55.9198 0.290985 36.317 0.290985C16.7142 0.290985 0.822998 16.1822 0.822998 35.785C0.822998 55.3878 16.7142 71.279 36.317 71.279Z" fill="#575756"/>
<path d="M45.317 32.433C45.374 32.5932 45.3817 32.7668 45.3389 32.9314C45.2962 33.096 45.2048 33.2439 45.077 33.356L43.453 34.834C43.5368 35.4646 43.5368 36.1035 43.453 36.734L45.077 38.212C45.2047 38.324 45.2959 38.4717 45.3387 38.6361C45.3815 38.8005 45.3739 38.974 45.317 39.134C45.1524 39.5775 44.9544 40.0078 44.7242 40.421L44.5482 40.721C44.3012 41.131 44.024 41.5221 43.7191 41.891C43.609 42.0205 43.4625 42.1141 43.2987 42.1596C43.1348 42.205 42.9612 42.2003 42.8001 42.146L40.711 41.482C40.2055 41.8712 39.6508 42.1917 39.0611 42.435L38.5921 44.577C38.5584 44.7439 38.4752 44.8968 38.3533 45.0158C38.2315 45.1347 38.0767 45.2142 37.909 45.244C36.8535 45.4187 35.7765 45.4187 34.721 45.244C34.5533 45.2144 34.3985 45.1349 34.2767 45.0159C34.1548 44.8969 34.0718 44.744 34.0382 44.577L33.5692 42.435C32.9795 42.1916 32.4245 41.8711 31.919 41.482L29.8341 42.15C29.6729 42.2035 29.4994 42.2078 29.3358 42.1624C29.1721 42.117 29.0257 42.0239 28.9151 41.895C28.6099 41.5263 28.3326 41.1352 28.086 40.725L27.91 40.425C27.6798 40.0118 27.4815 39.5815 27.317 39.138C27.2602 38.978 27.2527 38.8045 27.2955 38.6402C27.3383 38.4758 27.4293 38.3281 27.557 38.216L29.181 36.738C29.139 36.4207 29.1176 36.1011 29.117 35.781C29.1175 35.4626 29.1389 35.1446 29.181 34.829L27.557 33.351C27.4292 33.2388 27.3383 33.0909 27.2955 32.9263C27.2527 32.7618 27.2601 32.5882 27.317 32.428C27.4815 31.9848 27.6798 31.5549 27.91 31.142L28.086 30.842C28.3322 30.4315 28.6094 30.0403 28.9151 29.672C29.0252 29.5425 29.1717 29.4489 29.3355 29.4035C29.4993 29.358 29.6729 29.3627 29.8341 29.417L31.9232 30.08C32.4289 29.6915 32.9836 29.3714 33.5731 29.128L34.0421 26.986C34.0759 26.819 34.159 26.6661 34.2808 26.547C34.4026 26.4279 34.5575 26.3481 34.7252 26.318C35.2516 26.2273 35.7849 26.1821 36.3192 26.183C36.8532 26.1827 37.3864 26.2268 37.9132 26.315C38.0807 26.3447 38.2353 26.4242 38.357 26.5432C38.4787 26.6622 38.5616 26.8151 38.595 26.982L39.064 29.124C39.6541 29.3672 40.2094 29.6877 40.7152 30.077L42.804 29.413C42.9652 29.3597 43.1387 29.3555 43.3023 29.4009C43.4659 29.4463 43.6123 29.5392 43.723 29.668C44.0282 30.0367 44.3054 30.4278 44.5521 30.838L44.7281 31.138C44.9581 31.551 45.1564 31.9809 45.3211 32.424L45.317 32.433ZM36.317 38.787C36.9103 38.787 37.4904 38.6111 37.9837 38.2814C38.4771 37.9518 38.8616 37.4833 39.0887 36.9351C39.3158 36.3869 39.3751 35.7837 39.2594 35.2017C39.1436 34.6198 38.8579 34.0853 38.4383 33.6657C38.0187 33.2461 37.4844 32.9604 36.9024 32.8446C36.3205 32.7289 35.7172 32.7883 35.169 33.0154C34.6208 33.2424 34.1522 33.627 33.8226 34.1203C33.4929 34.6137 33.317 35.1937 33.317 35.787C33.317 36.1811 33.3948 36.5714 33.5457 36.9355C33.6966 37.2996 33.9176 37.6304 34.1964 37.909C34.4752 38.1876 34.8063 38.4086 35.1705 38.5592C35.5347 38.7099 35.925 38.7873 36.3192 38.787H36.317Z" fill="white"/>
</svg>
