<svg width="72" height="72" viewBox="0 0 72 72" fill="none" xmlns="http://www.w3.org/2000/svg">
<path d="M35.8319 71.619C55.4347 71.619 71.3259 55.7278 71.3259 36.125C71.3259 16.5222 55.4347 0.631012 35.8319 0.631012C16.2291 0.631012 0.337891 16.5222 0.337891 36.125C0.337891 55.7278 16.2291 71.619 35.8319 71.619Z" fill="#575756"/>
<path d="M24.6318 26.524C23.7831 26.524 22.9693 26.8612 22.3691 27.4613C21.769 28.0614 21.4321 28.8753 21.4321 29.724V42.524C21.4321 43.3727 21.769 44.1866 22.3691 44.7867C22.9693 45.3869 23.7831 45.724 24.6318 45.724H47.0322C47.8809 45.724 48.6948 45.3869 49.2949 44.7867C49.895 44.1866 50.2319 43.3727 50.2319 42.524V29.724C50.2319 28.8753 49.895 28.0614 49.2949 27.4613C48.6948 26.8612 47.8809 26.524 47.0322 26.524H24.6318ZM27.832 42.524H24.6318V39.324C25.0521 39.324 25.4682 39.4068 25.8564 39.5676C26.2447 39.7284 26.5974 39.9641 26.8945 40.2613C27.1917 40.5584 27.4276 40.9112 27.5884 41.2994C27.7492 41.6876 27.832 42.1038 27.832 42.524ZM24.6318 32.924V29.724H27.832C27.832 30.5727 27.4946 31.3866 26.8945 31.9868C26.2944 32.5869 25.4805 32.924 24.6318 32.924ZM43.832 42.524C43.832 41.6753 44.1689 40.8614 44.769 40.2613C45.3692 39.6611 46.1835 39.324 47.0322 39.324V42.524H43.832ZM47.0322 32.924C46.1835 32.924 45.3692 32.5869 44.769 31.9868C44.1689 31.3866 43.832 30.5727 43.832 29.724H47.0322V32.924ZM35.832 31.324C36.7814 31.324 37.7092 31.6055 38.4985 32.1329C39.2879 32.6604 39.9033 33.41 40.2666 34.2871C40.6299 35.1642 40.7248 36.1293 40.5396 37.0604C40.3543 37.9915 39.8974 38.8468 39.2261 39.5181C38.5548 40.1894 37.6997 40.6465 36.7686 40.8318C35.8374 41.017 34.8722 40.9219 33.9951 40.5586C33.118 40.1953 32.3683 39.5801 31.8408 38.7907C31.3134 38.0014 31.0322 37.0733 31.0322 36.124C31.0322 35.4936 31.1562 34.8695 31.3975 34.2871C31.6387 33.7047 31.9923 33.1756 32.438 32.7299C32.8837 32.2842 33.4128 31.9306 33.9951 31.6894C34.5775 31.4482 35.2017 31.324 35.832 31.324Z" fill="white"/>
</svg>
