<svg xmlns="http://www.w3.org/2000/svg" xmlns:xlink="http://www.w3.org/1999/xlink" viewBox="0 0 278.06 184.21"><defs><style>.cls-1{fill:none;}.cls-2{isolation:isolate;}.cls-3{clip-path:url(#clip-path);}.cls-4{mix-blend-mode:soft-light;}.cls-5{fill:#b2b1b1;}.cls-6{fill:#cdcccd;}.cls-7{fill:#06060c;}.cls-8{fill:#8acbd2;}.cls-9{fill:#e64c65;}.cls-10{fill:#f5e465;}.cls-11{fill:#fff;}.cls-12{fill:#83b92b;}.cls-13{fill:#4d4c4c;}.cls-14{fill:#4cb8bf;}.cls-15{fill:#50b4b6;}.cls-16{opacity:0.2;}.cls-17{fill:#d5d5d5;}.cls-18{fill:#3c3c3b;}.cls-19{clip-path:url(#clip-path-2);}.cls-20{fill:url(#Degradado_sin_nombre_2);}.cls-21{fill:#997951;mix-blend-mode:screen;opacity:0.86;}.cls-22{fill:#2d2318;}</style><clipPath id="clip-path"><rect class="cls-1" width="278.06" height="184.21" rx="6.95"/></clipPath><clipPath id="clip-path-2"><rect class="cls-1" x="29.5" y="62.46" width="36.2" height="28.09"/></clipPath><linearGradient id="Degradado_sin_nombre_2" x1="30.78" y1="62.72" x2="66.2" y2="91.74" gradientUnits="userSpaceOnUse"><stop offset="0" stop-color="#b08a68"/><stop offset="0.15" stop-color="#b08a68"/><stop offset="0.46" stop-color="#e0ccae"/><stop offset="0.61" stop-color="#f5e9cd"/><stop offset="0.72" stop-color="#fffffa"/><stop offset="0.84" stop-color="#f5e9cd"/><stop offset="1" stop-color="#b08a68"/></linearGradient></defs><g class="cls-2"><g id="Capa_1" data-name="Capa 1"><rect class="cls-1" width="278.06" height="184.21" rx="6.95"/><g class="cls-3"><image width="2829" height="2000" transform="translate(-5.65 -10.18) scale(0.1)" xlink:href="../../../../../../../1CERO1/1CERO1%20FINTECH/TARJETAS/recursos/grey-and-black-texture-on-concrete.jpg"/><g class="cls-4"><path d="M108.89,108.5a.64.64,0,0,1-.45-.19.65.65,0,0,1-.18-.44.67.67,0,0,1,.18-.45.66.66,0,0,1,.89,0,.64.64,0,0,1,.19.45.65.65,0,0,1-.63.63Z"/><path d="M107.63,106a.63.63,0,0,1,.63-.63h0a.63.63,0,0,1,.63.63h0a.64.64,0,0,1-.63.63h0A.63.63,0,0,1,107.63,106Zm0-2.53a.63.63,0,0,1,.63-.63h0a.64.64,0,0,1,.63.63h0a.63.63,0,0,1-.63.63h0A.63.63,0,0,1,107.63,103.45Z"/><path d="M108.26,101.56a.62.62,0,0,1-.63-.63.69.69,0,0,1,.18-.45.64.64,0,0,1,1.08.45.64.64,0,0,1-.19.45A.67.67,0,0,1,108.26,101.56Z"/><polygon class="cls-5" points="220.47 70.67 220.47 40.41 205.34 55.54 205.34 78.24 205.34 153.89 228.04 153.89 228.04 78.24 220.47 70.67"/><polygon class="cls-6" points="230.56 70.67 230.56 40.41 220.47 40.41 220.47 70.67 228.04 78.24 228.04 153.89 238.13 153.89 238.13 78.24 230.56 70.67"/><path class="cls-7" d="M238.13,154.52H205.34a.63.63,0,0,1-.63-.63V55.54a.64.64,0,0,1,.19-.45L220,40a.67.67,0,0,1,.44-.18h10.09a.63.63,0,0,1,.63.63v30l7.38,7.38a.64.64,0,0,1,.19.45v75.65A.63.63,0,0,1,238.13,154.52ZM206,153.26H237.5V78.5l-7.38-7.38a.64.64,0,0,1-.19-.45V41h-9.19L206,55.8Z"/><path class="cls-7" d="M228,147h-22.7a.63.63,0,0,1-.63-.63.64.64,0,0,1,.63-.63H228a.63.63,0,0,1,.63.63A.63.63,0,0,1,228,147Z"/><path class="cls-7" d="M228,144.43h-22.7a.63.63,0,1,1,0-1.26H228a.63.63,0,1,1,0,1.26Z"/><path class="cls-7" d="M228,141.91h-22.7a.63.63,0,0,1,0-1.26H228a.63.63,0,0,1,0,1.26Z"/><path class="cls-7" d="M228,139.39h-22.7a.63.63,0,0,1,0-1.26H228a.63.63,0,0,1,0,1.26Z"/><path class="cls-7" d="M228,136.87h-22.7a.63.63,0,0,1,0-1.26H228a.63.63,0,0,1,0,1.26Z"/><path class="cls-7" d="M228,134.35h-22.7a.64.64,0,0,1,0-1.27H228a.64.64,0,0,1,0,1.27Z"/><path class="cls-7" d="M228,131.82h-22.7a.63.63,0,0,1-.63-.63.64.64,0,0,1,.63-.63H228a.63.63,0,0,1,.63.63A.63.63,0,0,1,228,131.82Z"/><path class="cls-7" d="M228,129.3h-22.7a.63.63,0,0,1,0-1.26H228a.63.63,0,0,1,0,1.26Z"/><path class="cls-7" d="M228,126.78h-22.7a.63.63,0,0,1,0-1.26H228a.63.63,0,0,1,0,1.26Z"/><path class="cls-7" d="M228,124.26h-22.7a.63.63,0,1,1,0-1.26H228a.63.63,0,1,1,0,1.26Z"/><path class="cls-7" d="M228,121.74h-22.7a.64.64,0,0,1-.63-.63.63.63,0,0,1,.63-.63H228a.63.63,0,0,1,.63.63A.63.63,0,0,1,228,121.74Z"/><path class="cls-7" d="M228,119.22h-22.7a.64.64,0,0,1,0-1.27H228a.64.64,0,0,1,0,1.27Z"/><path class="cls-7" d="M228,116.69h-22.7a.63.63,0,1,1,0-1.26H228a.63.63,0,1,1,0,1.26Z"/><path class="cls-7" d="M228,114.17h-22.7a.63.63,0,0,1,0-1.26H228a.63.63,0,0,1,0,1.26Z"/><path class="cls-7" d="M228,111.65h-22.7a.63.63,0,1,1,0-1.26H228a.63.63,0,1,1,0,1.26Z"/><path class="cls-7" d="M228,109.13h-22.7a.63.63,0,0,1,0-1.26H228a.63.63,0,0,1,0,1.26Z"/><path class="cls-7" d="M228,106.61h-22.7a.64.64,0,0,1-.63-.63.63.63,0,0,1,.63-.63H228a.63.63,0,0,1,.63.63A.63.63,0,0,1,228,106.61Z"/><path class="cls-7" d="M228,104.08h-22.7a.63.63,0,0,1-.63-.63.64.64,0,0,1,.63-.63H228a.63.63,0,0,1,.63.63A.63.63,0,0,1,228,104.08Z"/><path class="cls-7" d="M228,101.56h-22.7a.63.63,0,0,1,0-1.26H228a.63.63,0,0,1,0,1.26Z"/><path class="cls-7" d="M228,99h-22.7a.63.63,0,1,1,0-1.26H228A.63.63,0,1,1,228,99Z"/><path class="cls-7" d="M228,96.52h-22.7a.63.63,0,0,1,0-1.26H228a.63.63,0,0,1,0,1.26Z"/><path class="cls-7" d="M228,94h-22.7a.63.63,0,0,1,0-1.26H228A.63.63,0,0,1,228,94Z"/><path class="cls-7" d="M228,91.48h-22.7a.64.64,0,0,1,0-1.27H228a.64.64,0,0,1,0,1.27Z"/><path class="cls-7" d="M228,89h-22.7a.63.63,0,0,1-.63-.63.64.64,0,0,1,.63-.63H228a.63.63,0,0,1,.63.63A.63.63,0,0,1,228,89Z"/><path class="cls-7" d="M228,86.43h-22.7a.63.63,0,1,1,0-1.26H228a.63.63,0,1,1,0,1.26Z"/><path class="cls-7" d="M228,83.91h-22.7a.63.63,0,0,1,0-1.26H228a.63.63,0,0,1,0,1.26Z"/><path class="cls-7" d="M228,81.39h-22.7a.63.63,0,0,1,0-1.26H228a.63.63,0,0,1,0,1.26Z"/><path class="cls-7" d="M228,78.87h-22.7a.64.64,0,0,1-.63-.63.63.63,0,0,1,.63-.63H228a.63.63,0,0,1,.63.63A.63.63,0,0,1,228,78.87Z"/><path class="cls-7" d="M220.47,56.17H205.34a.63.63,0,1,1,0-1.26h15.13a.63.63,0,1,1,0,1.26Z"/><path class="cls-7" d="M220.47,58.69H205.34a.63.63,0,1,1,0-1.26h15.13a.63.63,0,1,1,0,1.26Z"/><path class="cls-7" d="M220.47,61.21H205.34a.63.63,0,0,1-.63-.63.64.64,0,0,1,.63-.63h15.13a.64.64,0,0,1,.64.63A.64.64,0,0,1,220.47,61.21Z"/><path class="cls-7" d="M220.47,63.74H205.34a.64.64,0,0,1-.63-.63.63.63,0,0,1,.63-.63h15.13a.64.64,0,0,1,.64.63A.64.64,0,0,1,220.47,63.74Z"/><path class="cls-7" d="M220.47,66.26H205.34a.63.63,0,1,1,0-1.26h15.13a.63.63,0,1,1,0,1.26Z"/><path class="cls-7" d="M220.47,68.78H205.34a.63.63,0,0,1,0-1.26h15.13a.63.63,0,1,1,0,1.26Z"/><path class="cls-7" d="M220.47,71.3H205.34a.63.63,0,0,1,0-1.26h15.13a.63.63,0,1,1,0,1.26Z"/><path class="cls-7" d="M228,154.52a.63.63,0,0,1-.63-.63V78.5L220,71.12a.64.64,0,0,1-.19-.45V40.41a.64.64,0,0,1,1.27,0v30l7.38,7.38a.67.67,0,0,1,.18.45v75.65A.63.63,0,0,1,228,154.52Z"/><path class="cls-7" d="M225.52,76.35H205.34a.64.64,0,0,1,0-1.27h20.18a.64.64,0,0,1,0,1.27Z"/><path class="cls-7" d="M222.82,73.82H205.34a.63.63,0,1,1,0-1.26h17.48a.63.63,0,0,1,0,1.26Z"/><path class="cls-7" d="M230.56,71.3H220.47a.63.63,0,0,1,0-1.26h10.09a.63.63,0,0,1,0,1.26Z"/><path class="cls-7" d="M238.13,78.87H228a.63.63,0,0,1-.63-.63.63.63,0,0,1,.63-.63h10.09a.63.63,0,0,1,.63.63A.63.63,0,0,1,238.13,78.87Z"/><path class="cls-7" d="M205.34,56.17a.62.62,0,0,1-.44-.18.63.63,0,0,1,0-.9L220,40a.63.63,0,1,1,.89.9L205.79,56A.63.63,0,0,1,205.34,56.17Z"/><path class="cls-7" d="M230.56,41H220.47a.63.63,0,1,1,0-1.26h10.09a.63.63,0,0,1,0,1.26Z"/><rect class="cls-6" x="235.61" y="85.8" width="30.26" height="68.09"/><rect class="cls-8" x="248.21" y="88.32" width="15.13" height="65.57"/><path class="cls-7" d="M265.87,154.52H245.69a.63.63,0,0,1-.63-.63V85.8a.63.63,0,0,1,.63-.63h20.18a.63.63,0,0,1,.63.63v68.09A.63.63,0,0,1,265.87,154.52Zm-19.55-1.26h18.92V86.43H246.32Z"/><path class="cls-7" d="M263.34,154.52H248.21a.63.63,0,0,1-.63-.63V88.32a.64.64,0,0,1,.63-.63h15.13a.64.64,0,0,1,.64.63v65.57A.64.64,0,0,1,263.34,154.52Zm-14.5-1.26h13.87V89H248.84Z"/><path class="cls-7" d="M258.3,154.52a.63.63,0,0,1-.63-.63V88.32a.63.63,0,0,1,1.26,0v65.57A.63.63,0,0,1,258.3,154.52Z"/><path class="cls-7" d="M253.26,154.52a.63.63,0,0,1-.63-.63V88.32a.63.63,0,0,1,1.26,0v65.57A.63.63,0,0,1,253.26,154.52Z"/><path class="cls-7" d="M245.69,86.43H235.61a.63.63,0,0,1,0-1.26h10.08a.63.63,0,1,1,0,1.26Z"/><path class="cls-7" d="M263.34,99h-5a.63.63,0,1,1,0-1.26h5a.63.63,0,1,1,0,1.26Z"/><path class="cls-7" d="M258.3,94h-5a.63.63,0,0,1,0-1.26h5a.63.63,0,0,1,0,1.26Z"/><path class="cls-7" d="M253.26,99h-5a.63.63,0,1,1,0-1.26h5a.63.63,0,1,1,0,1.26Z"/><path class="cls-7" d="M263.34,109.13h-5a.63.63,0,0,1,0-1.26h5a.63.63,0,1,1,0,1.26Z"/><path class="cls-7" d="M258.3,104.08h-5a.63.63,0,0,1-.63-.63.63.63,0,0,1,.63-.63h5a.63.63,0,0,1,.63.63A.63.63,0,0,1,258.3,104.08Z"/><path class="cls-7" d="M253.26,109.13h-5a.63.63,0,0,1,0-1.26h5a.63.63,0,0,1,0,1.26Z"/><path class="cls-7" d="M263.34,119.22h-5a.64.64,0,0,1,0-1.27h5a.64.64,0,1,1,0,1.27Z"/><path class="cls-7" d="M258.3,114.17h-5a.63.63,0,0,1,0-1.26h5a.63.63,0,0,1,0,1.26Z"/><path class="cls-7" d="M253.26,119.22h-5a.64.64,0,0,1,0-1.27h5a.64.64,0,0,1,0,1.27Z"/><path class="cls-7" d="M263.34,129.3h-5a.63.63,0,0,1,0-1.26h5a.63.63,0,1,1,0,1.26Z"/><path class="cls-7" d="M258.3,124.26h-5a.63.63,0,1,1,0-1.26h5a.63.63,0,1,1,0,1.26Z"/><path class="cls-7" d="M253.26,129.3h-5a.63.63,0,0,1,0-1.26h5a.63.63,0,0,1,0,1.26Z"/><path class="cls-7" d="M263.34,139.39h-5a.63.63,0,0,1,0-1.26h5a.63.63,0,1,1,0,1.26Z"/><path class="cls-7" d="M258.3,134.35h-5a.64.64,0,0,1,0-1.27h5a.64.64,0,0,1,0,1.27Z"/><path class="cls-7" d="M253.26,139.39h-5a.63.63,0,0,1,0-1.26h5a.63.63,0,0,1,0,1.26Z"/><path class="cls-7" d="M263.34,149.48h-5a.63.63,0,0,1-.63-.63.63.63,0,0,1,.63-.63h5a.64.64,0,0,1,.64.63A.64.64,0,0,1,263.34,149.48Z"/><path class="cls-7" d="M258.3,144.43h-5a.63.63,0,1,1,0-1.26h5a.63.63,0,1,1,0,1.26Z"/><path class="cls-7" d="M253.26,149.48h-5a.64.64,0,0,1-.63-.63.63.63,0,0,1,.63-.63h5a.63.63,0,0,1,.63.63A.63.63,0,0,1,253.26,149.48Z"/><path class="cls-7" d="M235.61,154.52a.63.63,0,0,1-.63-.63V85.8a.63.63,0,0,1,.63-.63.63.63,0,0,1,.63.63v68.09A.63.63,0,0,1,235.61,154.52Z"/><circle class="cls-9" cx="233.08" cy="141.28" r="7.57"/><path class="cls-7" d="M233.08,154.52a.63.63,0,0,1-.63-.63V143.8a.63.63,0,0,1,.63-.63.63.63,0,0,1,.63.63v10.09A.63.63,0,0,1,233.08,154.52Z"/><path class="cls-7" d="M233.08,149.48a8.2,8.2,0,1,1,8.2-8.2A8.2,8.2,0,0,1,233.08,149.48Zm0-15.13a6.94,6.94,0,1,0,6.94,6.93A6.94,6.94,0,0,0,233.08,134.35Z"/><circle class="cls-10" cx="119.6" cy="143.8" r="5.04"/><path class="cls-7" d="M119.6,154.52a.63.63,0,0,1-.63-.63v-7.57a.64.64,0,0,1,.63-.63.63.63,0,0,1,.63.63v7.57A.63.63,0,0,1,119.6,154.52Z"/><path class="cls-7" d="M119.6,149.48a5.68,5.68,0,1,1,5.68-5.68A5.69,5.69,0,0,1,119.6,149.48Zm0-10.09A4.42,4.42,0,1,0,124,143.8,4.42,4.42,0,0,0,119.6,139.39Z"/><rect class="cls-6" x="172.56" y="93.37" width="12.61" height="60.52"/><rect class="cls-8" x="152.39" y="93.37" width="20.17" height="60.52"/><path class="cls-7" d="M185.17,154.52H152.39a.63.63,0,0,1-.63-.63V93.37a.63.63,0,0,1,.63-.63h32.78a.63.63,0,0,1,.63.63v60.52A.63.63,0,0,1,185.17,154.52ZM153,153.26h31.52V94H153Z"/><path class="cls-7" d="M172.56,154.52a.63.63,0,0,1-.63-.63V93.37a.63.63,0,1,1,1.26,0v60.52A.63.63,0,0,1,172.56,154.52Z"/><path class="cls-7" d="M167.52,154.52a.63.63,0,0,1-.63-.63V93.37a.63.63,0,1,1,1.26,0v60.52A.63.63,0,0,1,167.52,154.52Z"/><path class="cls-7" d="M157.43,154.52a.63.63,0,0,1-.63-.63V93.37a.63.63,0,0,1,1.26,0v60.52A.63.63,0,0,1,157.43,154.52Z"/><path class="cls-7" d="M162.47,154.52a.63.63,0,0,1-.63-.63V93.37a.63.63,0,0,1,.63-.63.63.63,0,0,1,.63.63v60.52A.63.63,0,0,1,162.47,154.52Z"/><path class="cls-7" d="M172.56,147H152.39a.63.63,0,0,1-.63-.63.63.63,0,0,1,.63-.63h20.17a.63.63,0,0,1,.63.63A.63.63,0,0,1,172.56,147Z"/><path class="cls-7" d="M172.56,139.39H152.39a.63.63,0,0,1,0-1.26h20.17a.63.63,0,0,1,0,1.26Z"/><path class="cls-7" d="M172.56,131.82H152.39a.63.63,0,0,1-.63-.63.63.63,0,0,1,.63-.63h20.17a.63.63,0,0,1,.63.63A.63.63,0,0,1,172.56,131.82Z"/><path class="cls-7" d="M172.56,124.26H152.39a.63.63,0,1,1,0-1.26h20.17a.63.63,0,0,1,0,1.26Z"/><path class="cls-7" d="M172.56,116.69H152.39a.63.63,0,0,1,0-1.26h20.17a.63.63,0,0,1,0,1.26Z"/><path class="cls-7" d="M172.56,109.13H152.39a.63.63,0,0,1,0-1.26h20.17a.63.63,0,0,1,0,1.26Z"/><path class="cls-7" d="M172.56,101.56H152.39a.63.63,0,1,1,0-1.26h20.17a.63.63,0,0,1,0,1.26Z"/><rect class="cls-11" x="182.65" y="105.98" width="12.61" height="5.04"/><rect class="cls-12" x="182.65" y="111.02" width="20.17" height="42.87"/><rect class="cls-11" x="195.26" y="105.98" width="7.57" height="5.04"/><path class="cls-10" d="M171.22,69.43a2.52,2.52,0,0,1,3.21-1.55l2.38.82a2.52,2.52,0,0,1-1.65,4.77l-2.39-.83A2.52,2.52,0,0,1,171.22,69.43Z"/><path d="M176,74.24a3,3,0,0,1-1-.18l-2.38-.82a3.15,3.15,0,0,1,1-6.13,3,3,0,0,1,1,.17l2.39.83a3.15,3.15,0,0,1-1,6.13Zm-2.38-5.87a1.88,1.88,0,0,0-1.7,2.71,1.88,1.88,0,0,0,1.08,1l2.38.82a1.92,1.92,0,0,0,2.41-1.17,1.89,1.89,0,0,0-1.17-2.4l-2.38-.83A1.87,1.87,0,0,0,173.6,68.37Z"/><path class="cls-10" d="M171.22,75.3a2.52,2.52,0,0,1,3.21-1.55l2.38.82a2.52,2.52,0,0,1-1.65,4.77l-2.39-.83A2.52,2.52,0,0,1,171.22,75.3Z"/><path d="M176,80.11a3,3,0,0,1-1-.18l-2.38-.82a3.15,3.15,0,0,1,1-6.13,3,3,0,0,1,1,.17L177,74a3.15,3.15,0,0,1-1,6.13Zm-2.38-5.87A1.88,1.88,0,0,0,171.9,77a1.88,1.88,0,0,0,1.08,1l2.38.82a1.92,1.92,0,0,0,2.41-1.17,1.89,1.89,0,0,0-1.17-2.4l-2.38-.83A1.87,1.87,0,0,0,173.6,74.24Z"/><path class="cls-10" d="M171.22,81.19a2.51,2.51,0,0,1,3.21-1.56l2.38.83a2.52,2.52,0,1,1-1.65,4.76l-2.39-.82A2.53,2.53,0,0,1,171.22,81.19Z"/><path d="M176,86a3.27,3.27,0,0,1-1-.17L172.57,85a3.11,3.11,0,0,1-1.81-1.6,3.2,3.2,0,0,1-.14-2.41,3.16,3.16,0,0,1,3-2.12,3.27,3.27,0,0,1,1,.17l2.39.83A3.15,3.15,0,0,1,176,86Zm-2.38-5.87a1.9,1.9,0,0,0-1.79,1.27,1.92,1.92,0,0,0,.09,1.45,1.89,1.89,0,0,0,1.08,1l2.38.83a1.93,1.93,0,0,0,2.41-1.17,1.89,1.89,0,0,0-1.17-2.41l-2.38-.82A1.88,1.88,0,0,0,173.6,80.12Z"/><path class="cls-10" d="M171,59a2.5,2.5,0,0,1,3.56,0l7.13,7.13a2.52,2.52,0,1,1-3.56,3.57L171,62.58A2.51,2.51,0,0,1,171,59Z"/><path d="M179.91,71.08a3.12,3.12,0,0,1-2.23-.92L170.55,63a3.15,3.15,0,0,1,2.23-5.38,3.16,3.16,0,0,1,2.23.92l7.13,7.13a3.16,3.16,0,0,1,.92,2.23,3.14,3.14,0,0,1-3.15,3.15Zm-7.13-12.17a1.91,1.91,0,0,0-1.34.55,1.91,1.91,0,0,0,0,2.68l7.13,7.13a2,2,0,0,0,2.68,0,1.91,1.91,0,0,0,.55-1.34,1.88,1.88,0,0,0-.55-1.33l-7.13-7.14A1.93,1.93,0,0,0,172.78,58.91Z"/><rect class="cls-13" x="175.08" y="50.5" width="22.7" height="40.35" rx="2.52"/><rect class="cls-14" x="177.6" y="55.54" width="17.65" height="30.26"/><path d="M195.26,91.48H177.6a3.16,3.16,0,0,1-3.15-3.16V53a3.16,3.16,0,0,1,3.15-3.15h17.66A3.15,3.15,0,0,1,198.41,53v35.3A3.16,3.16,0,0,1,195.26,91.48ZM177.6,51.13A1.89,1.89,0,0,0,175.71,53v35.3a1.89,1.89,0,0,0,1.89,1.89h17.66a1.89,1.89,0,0,0,1.89-1.89V53a1.89,1.89,0,0,0-1.89-1.89Z"/><path class="cls-10" d="M185.17,106v-5c0-3.94-5-5-5-10.08h7.56a7.56,7.56,0,0,1,7.57-7.57V75.71a5,5,0,0,1,5-5V106Z"/><path d="M195.26,83.91a.63.63,0,0,1-.63-.63V75.71a.63.63,0,1,1,1.26,0v7.57A.63.63,0,0,1,195.26,83.91Z"/><path d="M200.3,106.61a.63.63,0,0,1-.63-.63V71.35a4.41,4.41,0,0,0-3.78,4.36v7.57a.63.63,0,0,1-.63.63,6.94,6.94,0,0,0-6.94,6.94.63.63,0,0,1-.63.63h-6.9c.19,2,1.35,3.32,2.56,4.66s2.45,2.7,2.45,4.79v5a.63.63,0,0,1-1.26,0v-5c0-1.6-1-2.69-2.13-4-1.36-1.51-2.91-3.21-2.91-6.13a.64.64,0,0,1,.63-.64h7a8.21,8.21,0,0,1,7.54-7.54v-7A5.68,5.68,0,0,1,200.3,70a.63.63,0,0,1,.63.63V106A.63.63,0,0,1,200.3,106.61Z"/><path d="M177.6,86.43a.63.63,0,0,1-.63-.63V55.54a.64.64,0,0,1,1.27,0V85.8A.64.64,0,0,1,177.6,86.43Z"/><path d="M195.26,56.17H177.6a.63.63,0,1,1,0-1.26h17.66a.63.63,0,0,1,0,1.26Z"/><path d="M189.63,86.43h-12a.63.63,0,1,1,0-1.26h12a.63.63,0,1,1,0,1.26Z"/><path d="M195.26,75.08a.63.63,0,0,1-.63-.63V55.54a.63.63,0,1,1,1.26,0V74.45A.63.63,0,0,1,195.26,75.08Z"/><path d="M189,53.65h-5a.63.63,0,1,1,0-1.26h5a.63.63,0,0,1,0,1.26Z"/><circle class="cls-9" cx="175.08" cy="50.5" r="3.78"/><path d="M175.08,54.91a4.42,4.42,0,1,1,4.42-4.41A4.42,4.42,0,0,1,175.08,54.91Zm0-7.57a3.16,3.16,0,1,0,3.16,3.16A3.16,3.16,0,0,0,175.08,47.34Z"/><path d="M202.82,111.65H182.65A.63.63,0,0,1,182,111v-5a.63.63,0,0,1,.63-.63h20.17a.63.63,0,0,1,.63.63v5A.63.63,0,0,1,202.82,111.65Zm-19.54-1.26h18.91v-3.78H183.28Z"/><path d="M195.26,111.65a.63.63,0,0,1-.63-.63v-5a.63.63,0,1,1,1.26,0v5A.63.63,0,0,1,195.26,111.65Z"/><path d="M202.82,154.52a.63.63,0,0,1-.63-.63V111a.63.63,0,1,1,1.26,0v42.87A.63.63,0,0,1,202.82,154.52Z"/><path d="M182.65,154.52a.63.63,0,0,1-.63-.63V111a.63.63,0,0,1,1.26,0v42.87A.63.63,0,0,1,182.65,154.52Z"/><path class="cls-11" d="M124.65,123.63H112a2.52,2.52,0,0,1-2.52-2.52c0-2.79,6.76-7.57,15.13-7.57Z"/><path class="cls-15" d="M114.34,116.06h7.79l-2.53,2.52h-8.74A14.35,14.35,0,0,1,114.34,116.06Z"/><rect class="cls-11" x="170.04" y="113.54" width="22.7" height="10.09"/><path class="cls-7" d="M192.74,124.26H170a.63.63,0,0,1-.63-.63V113.54a.63.63,0,0,1,.63-.63h22.7a.63.63,0,0,1,.63.63v10.09A.63.63,0,0,1,192.74,124.26ZM170.67,123h21.44v-8.83H170.67Z"/><polygon class="cls-15" points="175.08 116.06 190.21 116.06 187.69 118.58 172.56 118.58 175.08 116.06"/><rect class="cls-11" x="124.65" y="113.54" width="22.7" height="10.09"/><path class="cls-7" d="M147.34,124.26H124.65a.63.63,0,0,1-.63-.63V113.54a.63.63,0,0,1,.63-.63h22.69a.63.63,0,0,1,.63.63v10.09A.63.63,0,0,1,147.34,124.26ZM125.28,123h21.43v-8.83H125.28Z"/><polygon class="cls-15" points="129.69 116.06 144.82 116.06 142.3 118.58 127.17 118.58 129.69 116.06"/><rect class="cls-11" x="147.34" y="113.54" width="22.7" height="10.09"/><path class="cls-7" d="M170,124.26h-22.7a.63.63,0,0,1-.63-.63V113.54a.63.63,0,0,1,.63-.63H170a.63.63,0,0,1,.63.63v10.09A.63.63,0,0,1,170,124.26ZM148,123h21.44v-8.83H148Z"/><path class="cls-7" d="M170,116.69h-22.7a.63.63,0,1,1,0-1.26H170a.63.63,0,1,1,0,1.26Z"/><path class="cls-7" d="M124.65,124.26H112a3.16,3.16,0,0,1-3.15-3.15c0-3.24,7.06-8.2,15.76-8.2a.63.63,0,1,1,0,1.26c-8.23,0-14.5,4.62-14.5,6.94A1.89,1.89,0,0,0,112,123h12.61a.63.63,0,0,1,0,1.26Z"/><path class="cls-7" d="M147.34,116.69H114.56a.63.63,0,0,1,0-1.26h32.78a.63.63,0,0,1,0,1.26Z"/><path class="cls-7" d="M119.6,119.22h-8.74a.64.64,0,0,1,0-1.27h8.74a.64.64,0,0,1,0,1.27Z"/><path class="cls-7" d="M119.6,119.22a.63.63,0,0,1-.44-.19.62.62,0,0,1,0-.89l2.52-2.52a.63.63,0,1,1,.89.89L120.05,119A.64.64,0,0,1,119.6,119.22Z"/><path class="cls-7" d="M142.3,119.22H127.17a.64.64,0,0,1,0-1.27H142.3a.64.64,0,0,1,0,1.27Z"/><path class="cls-7" d="M142.3,119.22a.67.67,0,0,1-.45-.19.64.64,0,0,1,0-.89l2.53-2.52a.62.62,0,0,1,.89,0,.64.64,0,0,1,0,.89L142.75,119A.67.67,0,0,1,142.3,119.22Z"/><path class="cls-7" d="M127.17,119.22a.67.67,0,0,1-.45-.19.64.64,0,0,1,0-.89l2.53-2.52a.62.62,0,0,1,.89,0,.64.64,0,0,1,0,.89L127.62,119A.67.67,0,0,1,127.17,119.22Z"/><polygon class="cls-15" points="152.21 116.06 167.34 116.06 164.82 118.58 149.69 118.58 152.21 116.06"/><path class="cls-7" d="M164.82,119.22H149.69a.63.63,0,0,1-.45-1.08l2.52-2.52a.64.64,0,0,1,.45-.19h15.13a.64.64,0,0,1,.58.39.63.63,0,0,1-.13.69L165.26,119A.6.6,0,0,1,164.82,119.22ZM151.21,118h13.35l1.26-1.26H152.47Z"/><path class="cls-7" d="M187.51,119.22H172.38a.64.64,0,0,1,0-1.27h15.13a.64.64,0,0,1,0,1.27Z"/><path class="cls-7" d="M187.51,119.22a.63.63,0,0,1-.44-.19.62.62,0,0,1,0-.89l2.52-2.52a.63.63,0,1,1,.89.89L188,119A.65.65,0,0,1,187.51,119.22Z"/><path class="cls-7" d="M172.38,119.22a.63.63,0,0,1-.44-.19.62.62,0,0,1,0-.89l2.52-2.52a.63.63,0,1,1,.89.89L172.83,119A.65.65,0,0,1,172.38,119.22Z"/><rect class="cls-11" x="192.74" y="113.54" width="22.7" height="10.09"/><path class="cls-7" d="M215.43,124.26H192.74a.63.63,0,0,1-.63-.63V113.54a.63.63,0,0,1,.63-.63h22.69a.63.63,0,0,1,.63.63v10.09A.63.63,0,0,1,215.43,124.26ZM193.37,123H214.8v-8.83H193.37Z"/><polygon class="cls-15" points="197.78 116.06 212.91 116.06 210.39 118.58 195.26 118.58 197.78 116.06"/><path class="cls-7" d="M215.43,116.69H192.74a.63.63,0,0,1,0-1.26h22.69a.63.63,0,0,1,0,1.26Z"/><path class="cls-7" d="M210.21,119.22H195.08a.64.64,0,0,1,0-1.27h15.13a.64.64,0,0,1,0,1.27Z"/><path class="cls-7" d="M210.21,119.22a.67.67,0,0,1-.45-.19.64.64,0,0,1,0-.89l2.53-2.52a.62.62,0,0,1,.89,0,.64.64,0,0,1,0,.89L210.66,119A.67.67,0,0,1,210.21,119.22Z"/><path class="cls-7" d="M195.08,119.22a.67.67,0,0,1-.45-.19.64.64,0,0,1,0-.89l2.52-2.52a.63.63,0,1,1,.9.89L195.52,119A.63.63,0,0,1,195.08,119.22Z"/><rect class="cls-11" x="215.43" y="113.54" width="22.7" height="10.09"/><path class="cls-7" d="M238.13,124.26h-22.7a.63.63,0,0,1-.63-.63V113.54a.63.63,0,0,1,.63-.63h22.7a.63.63,0,0,1,.63.63v10.09A.63.63,0,0,1,238.13,124.26ZM216.06,123H237.5v-8.83H216.06Z"/><polygon class="cls-15" points="220.47 116.06 235.61 116.06 233.08 118.58 217.95 118.58 220.47 116.06"/><path class="cls-7" d="M238.13,116.69h-22.7a.63.63,0,0,1,0-1.26h22.7a.63.63,0,0,1,0,1.26Z"/><path class="cls-7" d="M232.91,119.22H217.77a.64.64,0,0,1,0-1.27h15.14a.64.64,0,0,1,0,1.27Z"/><path class="cls-7" d="M232.91,119.22a.64.64,0,0,1-.45-.19.62.62,0,0,1,0-.89l2.52-2.52a.63.63,0,1,1,.89.89L233.35,119A.63.63,0,0,1,232.91,119.22Z"/><path class="cls-7" d="M217.77,119.22a.63.63,0,0,1-.44-.19.62.62,0,0,1,0-.89l2.52-2.52a.63.63,0,1,1,.89.89L218.22,119A.64.64,0,0,1,217.77,119.22Z"/><path class="cls-7" d="M192.74,116.69H170a.63.63,0,0,1,0-1.26h22.7a.63.63,0,0,1,0,1.26Z"/><g class="cls-16"><rect class="cls-14" x="-74.57" y="111.02" width="363.13" height="15.13"/></g><rect class="cls-5" x="268.39" y="131.19" width="2.52" height="22.7"/><rect class="cls-5" x="202.82" y="131.19" width="2.52" height="22.7"/><rect class="cls-5" x="137.26" y="131.19" width="2.52" height="22.7"/><rect class="cls-5" x="71.69" y="131.19" width="2.52" height="22.7"/><rect class="cls-5" x="6.12" y="131.19" width="2.52" height="22.7"/><rect class="cls-5" x="-74.57" y="126.15" width="363.13" height="5.04"/><path class="cls-7" d="M288.56,131.82H-74.57a.63.63,0,0,1-.63-.63.63.63,0,0,1,.63-.63H288.56a.63.63,0,0,1,.63.63A.63.63,0,0,1,288.56,131.82Z"/><path class="cls-14" d="M288.56,111.65H-74.57a.63.63,0,0,1-.63-.63.63.63,0,0,1,.63-.63H288.56a.63.63,0,1,1,0,1.26Z"/><path class="cls-7" d="M268.39,154.52a.63.63,0,0,1-.63-.63v-22.7a.63.63,0,0,1,1.26,0v22.7A.63.63,0,0,1,268.39,154.52Z"/><path class="cls-7" d="M270.91,154.52a.63.63,0,0,1-.63-.63v-22.7a.63.63,0,1,1,1.26,0v22.7A.63.63,0,0,1,270.91,154.52Z"/><path class="cls-7" d="M202.82,154.52a.63.63,0,0,1-.63-.63v-22.7a.63.63,0,0,1,1.26,0v22.7A.63.63,0,0,1,202.82,154.52Z"/><path class="cls-7" d="M205.34,154.52a.63.63,0,0,1-.63-.63v-22.7a.64.64,0,0,1,.63-.63.63.63,0,0,1,.63.63v22.7A.63.63,0,0,1,205.34,154.52Z"/><path class="cls-7" d="M137.26,154.52a.63.63,0,0,1-.63-.63v-22.7a.63.63,0,0,1,1.26,0v22.7A.63.63,0,0,1,137.26,154.52Z"/><path class="cls-7" d="M139.78,154.52a.63.63,0,0,1-.63-.63v-22.7a.63.63,0,0,1,1.26,0v22.7A.63.63,0,0,1,139.78,154.52Z"/><path class="cls-7" d="M71.69,154.52a.63.63,0,0,1-.63-.63v-22.7a.63.63,0,0,1,1.26,0v22.7A.63.63,0,0,1,71.69,154.52Z"/><path class="cls-7" d="M74.21,154.52a.63.63,0,0,1-.63-.63v-22.7a.63.63,0,1,1,1.26,0v22.7A.63.63,0,0,1,74.21,154.52Z"/><path class="cls-7" d="M6.12,154.52a.63.63,0,0,1-.63-.63v-22.7a.64.64,0,0,1,1.27,0v22.7A.64.64,0,0,1,6.12,154.52Z"/><path class="cls-7" d="M8.65,154.52a.63.63,0,0,1-.63-.63v-22.7a.63.63,0,0,1,.63-.63.64.64,0,0,1,.63.63v22.7A.63.63,0,0,1,8.65,154.52Z"/><path class="cls-14" d="M138.52,126.78a.63.63,0,0,1-.63-.63V111a.63.63,0,0,1,1.26,0v15.13A.63.63,0,0,1,138.52,126.78Z"/><path class="cls-14" d="M73,126.78a.63.63,0,0,1-.63-.63V111a.63.63,0,1,1,1.26,0v15.13A.63.63,0,0,1,73,126.78Z"/><path class="cls-14" d="M7.39,126.78a.63.63,0,0,1-.63-.63V111a.63.63,0,0,1,.63-.63A.63.63,0,0,1,8,111v15.13A.63.63,0,0,1,7.39,126.78Z"/><path class="cls-14" d="M204.08,126.78a.63.63,0,0,1-.63-.63V111a.63.63,0,0,1,.63-.63.63.63,0,0,1,.63.63v15.13A.63.63,0,0,1,204.08,126.78Z"/><path class="cls-14" d="M269.65,126.78a.63.63,0,0,1-.63-.63V111a.63.63,0,1,1,1.26,0v15.13A.63.63,0,0,1,269.65,126.78Z"/><path class="cls-7" d="M288.56,126.78H-74.57a.63.63,0,0,1-.63-.63.63.63,0,0,1,.63-.63H288.56a.63.63,0,0,1,0,1.26Z"/><circle class="cls-9" cx="101.95" cy="141.28" r="7.57"/><path class="cls-7" d="M102,154.52a.63.63,0,0,1-.63-.63V143.8a.63.63,0,0,1,1.26,0v10.09A.63.63,0,0,1,102,154.52Z"/><path class="cls-7" d="M102,149.48a8.2,8.2,0,1,1,8.2-8.2A8.2,8.2,0,0,1,102,149.48Zm0-15.13a6.94,6.94,0,1,0,6.94,6.93A6.94,6.94,0,0,0,102,134.35Z"/><circle class="cls-10" cx="107" cy="148.85" r="2.52"/><path class="cls-7" d="M107,152a3.16,3.16,0,1,1,3.15-3.15A3.16,3.16,0,0,1,107,152Zm0-5.05a1.9,1.9,0,1,0,1.89,1.9A1.9,1.9,0,0,0,107,147Z"/><path class="cls-7" d="M107,154.52a.63.63,0,0,1-.63-.63v-5a.63.63,0,0,1,.63-.63.63.63,0,0,1,.63.63v5A.63.63,0,0,1,107,154.52Z"/><circle class="cls-10" cx="277.21" cy="148.85" r="2.52"/><path class="cls-7" d="M277.21,152a3.16,3.16,0,1,1,3.16-3.15A3.16,3.16,0,0,1,277.21,152Zm0-5.05a1.9,1.9,0,1,0,1.9,1.9A1.9,1.9,0,0,0,277.21,147Z"/><path class="cls-7" d="M277.21,154.52a.63.63,0,0,1-.63-.63v-5a.64.64,0,0,1,1.27,0v5A.64.64,0,0,1,277.21,154.52Z"/><circle class="cls-10" cx="81.78" cy="147.58" r="3.78"/><path class="cls-7" d="M81.78,154.52a.63.63,0,0,1-.63-.63v-5a.63.63,0,0,1,1.26,0v5A.63.63,0,0,1,81.78,154.52Z"/><path class="cls-7" d="M81.78,152a4.42,4.42,0,1,1,4.41-4.42A4.42,4.42,0,0,1,81.78,152Zm0-7.57a3.16,3.16,0,1,0,3.15,3.15A3.16,3.16,0,0,0,81.78,144.43Z"/><path class="cls-9" d="M137.6,89.54a6.28,6.28,0,0,0-4.46-1.85V94Z"/><path class="cls-11" d="M133.14,87.69a6.31,6.31,0,1,0,4.46,10.77L133.14,94Z"/><path class="cls-10" d="M137.6,89.54,133.14,94l4.46,4.46a6.3,6.3,0,0,0,0-8.92Z"/><path d="M133.14,100.93A6.94,6.94,0,1,1,140.08,94,6.94,6.94,0,0,1,133.14,100.93Zm0-12.61A5.68,5.68,0,1,0,138.82,94,5.68,5.68,0,0,0,133.14,88.32Z"/><path d="M133.14,94.63a.63.63,0,0,1-.63-.63V87.69a.63.63,0,0,1,.63-.63.63.63,0,0,1,.63.63V94A.63.63,0,0,1,133.14,94.63Z"/><path d="M133.14,94.63a.59.59,0,0,1-.44-.19.62.62,0,0,1,0-.89l4.46-4.46a.64.64,0,0,1,.89,0,.65.65,0,0,1,0,.9l-4.46,4.45A.61.61,0,0,1,133.14,94.63Z"/><path d="M137.6,99.09a.63.63,0,0,1-.44-.19l-4.46-4.46a.62.62,0,0,1,0-.89.64.64,0,0,1,.89,0L138.05,98a.64.64,0,0,1,0,.89A.67.67,0,0,1,137.6,99.09Z"/><rect class="cls-10" x="180.13" y="66.67" width="12.61" height="7.57"/><path d="M192.74,74.87H180.13a.63.63,0,0,1-.63-.63V66.67a.63.63,0,0,1,.63-.63h12.61a.63.63,0,0,1,.63.63v7.57A.63.63,0,0,1,192.74,74.87Zm-12-1.26h11.35V67.3H180.76Z"/><path d="M180.13,74.87a.63.63,0,0,1-.4-1.12L184.46,70a.64.64,0,0,1,.89.1.64.64,0,0,1-.1.89l-4.73,3.78A.64.64,0,0,1,180.13,74.87Z"/><path d="M192.73,74.87a.67.67,0,0,1-.39-.14L187.61,71a.64.64,0,0,1-.1-.89.64.64,0,0,1,.89-.1l4.73,3.79a.62.62,0,0,1,.1.88A.63.63,0,0,1,192.73,74.87Z"/><path d="M184.85,71.08a.65.65,0,0,1-.39-.13l-4.73-3.79a.63.63,0,1,1,.79-1L185.25,70a.64.64,0,0,1,.1.89A.66.66,0,0,1,184.85,71.08Z"/><path d="M188,71.08a.66.66,0,0,1-.5-.23.64.64,0,0,1,.1-.89l4.73-3.78a.64.64,0,0,1,.89.1.62.62,0,0,1-.1.88L188.4,71A.63.63,0,0,1,188,71.08Z"/><path d="M186.43,72.35a.62.62,0,0,1-.39-.14L184.46,71a.64.64,0,0,1-.1-.89.64.64,0,0,1,.89-.1l1.18,1,1.18-1a.63.63,0,0,1,.79,1l-1.57,1.26A.67.67,0,0,1,186.43,72.35Z"/><path d="M146.71,108.5a.63.63,0,0,1,.63-.63h0a.63.63,0,0,1,.63.63h0a.63.63,0,0,1-.63.63h0A.64.64,0,0,1,146.71,108.5Zm0-2.52a.63.63,0,0,1,.63-.63h0a.63.63,0,0,1,.63.63h0a.63.63,0,0,1-.63.63h0A.64.64,0,0,1,146.71,106Zm0-2.53a.64.64,0,0,1,.63-.63h0a.63.63,0,0,1,.63.63h0a.63.63,0,0,1-.63.63h0A.63.63,0,0,1,146.71,103.45Zm0-2.52a.64.64,0,0,1,.63-.63h0a.63.63,0,0,1,.63.63h0a.63.63,0,0,1-.63.63h0A.63.63,0,0,1,146.71,100.93Zm0-2.52a.63.63,0,0,1,.63-.63h0a.63.63,0,0,1,.63.63h0a.63.63,0,0,1-.63.63h0A.63.63,0,0,1,146.71,98.41Zm0-2.52a.63.63,0,0,1,.63-.63h0a.63.63,0,0,1,.63.63h0a.63.63,0,0,1-.63.63h0A.63.63,0,0,1,146.71,95.89Zm0-2.52a.63.63,0,0,1,.63-.63h0a.63.63,0,0,1,.63.63h0a.63.63,0,0,1-.63.63h0A.64.64,0,0,1,146.71,93.37Zm0-2.52a.64.64,0,0,1,.63-.64h0a.64.64,0,0,1,.63.64h0a.63.63,0,0,1-.63.63h0A.64.64,0,0,1,146.71,90.85Zm0-2.53a.64.64,0,0,1,.63-.63h0a.63.63,0,0,1,.63.63h0a.63.63,0,0,1-.63.63h0A.63.63,0,0,1,146.71,88.32Z"/><path d="M252.63,83.28a.63.63,0,0,1,.63-.63h0a.63.63,0,0,1,.63.63h0a.63.63,0,0,1-.63.63h0A.63.63,0,0,1,252.63,83.28Zm0-2.52a.63.63,0,0,1,.63-.63h0a.63.63,0,0,1,.63.63h0a.64.64,0,0,1-.63.63h0A.63.63,0,0,1,252.63,80.76Zm0-2.52a.63.63,0,0,1,.63-.63h0a.63.63,0,0,1,.63.63h0a.64.64,0,0,1-.63.63h0A.63.63,0,0,1,252.63,78.24Zm0-2.53a.63.63,0,0,1,.63-.63h0a.64.64,0,0,1,.63.63h0a.64.64,0,0,1-.63.64h0A.64.64,0,0,1,252.63,75.71Zm0-2.52a.63.63,0,0,1,.63-.63h0a.64.64,0,0,1,.63.63h0a.63.63,0,0,1-.63.63h0A.63.63,0,0,1,252.63,73.19Zm0-2.52a.63.63,0,0,1,.63-.63h0a.63.63,0,0,1,.63.63h0a.63.63,0,0,1-.63.63h0A.63.63,0,0,1,252.63,70.67Zm0-2.52a.63.63,0,0,1,.63-.63h0a.63.63,0,0,1,.63.63h0a.63.63,0,0,1-.63.63h0A.63.63,0,0,1,252.63,68.15Zm0-2.52a.63.63,0,0,1,.63-.63h0a.63.63,0,0,1,.63.63h0a.64.64,0,0,1-.63.63h0A.63.63,0,0,1,252.63,65.63Z"/><path d="M265.24,83.28a.63.63,0,0,1,.63-.63h0a.63.63,0,0,1,.63.63h0a.63.63,0,0,1-.63.63h0A.63.63,0,0,1,265.24,83.28Zm0-2.52a.63.63,0,0,1,.63-.63h0a.63.63,0,0,1,.63.63h0a.64.64,0,0,1-.63.63h0A.63.63,0,0,1,265.24,80.76Z"/><path class="cls-9" d="M152.39,73.19c0,2.79-5,12.61-5,12.61s-5-9.82-5-12.61a5,5,0,0,1,10.09,0Z"/><path class="cls-7" d="M147.34,86.43a.64.64,0,0,1-.56-.34c-.52-1-5.11-10-5.11-12.9a5.68,5.68,0,0,1,11.35,0c0,2.86-4.59,11.88-5.12,12.9A.61.61,0,0,1,147.34,86.43Zm0-17.65a4.42,4.42,0,0,0-4.41,4.41c0,1.91,2.81,8,4.41,11.21,1.61-3.24,4.42-9.3,4.42-11.21A4.42,4.42,0,0,0,147.34,68.78Z"/><circle class="cls-11" cx="147.34" cy="73.19" r="1.26"/><path class="cls-7" d="M147.34,75.08a1.89,1.89,0,1,1,1.9-1.89A1.89,1.89,0,0,1,147.34,75.08Zm0-2.52a.64.64,0,0,0-.63.63.63.63,0,0,0,.63.63.63.63,0,0,0,.63-.63A.63.63,0,0,0,147.34,72.56Z"/><path class="cls-14" d="M245.69,35.37c0,2.78-5,12.61-5,12.61s-5-9.83-5-12.61a5,5,0,1,1,10.08,0Z"/><path class="cls-7" d="M240.65,48.61a.63.63,0,0,1-.56-.35c-.53-1-5.11-10-5.11-12.89a5.67,5.67,0,1,1,11.34,0c0,2.85-4.59,11.87-5.11,12.89A.63.63,0,0,1,240.65,48.61Zm0-17.66a4.42,4.42,0,0,0-4.41,4.42c0,1.91,2.8,8,4.41,11.2,1.61-3.24,4.41-9.29,4.41-11.2A4.42,4.42,0,0,0,240.65,31Z"/><circle class="cls-11" cx="240.65" cy="35.37" r="1.26"/><path class="cls-7" d="M240.65,37.26a1.89,1.89,0,1,1,1.89-1.89A1.89,1.89,0,0,1,240.65,37.26Zm0-2.52a.63.63,0,0,0-.63.63.63.63,0,0,0,1.26,0A.63.63,0,0,0,240.65,34.74Z"/><path class="cls-9" d="M253.26,57.22a2.94,2.94,0,0,1,0-5.88V45.45a8.83,8.83,0,1,0,6.24,15.07l-4.16-4.16A2.94,2.94,0,0,1,253.26,57.22Z"/><path class="cls-11" d="M255.34,52.2,259.5,48a8.79,8.79,0,0,0-6.24-2.59v5.89A2.94,2.94,0,0,1,255.34,52.2Z"/><path class="cls-10" d="M259.5,48l-4.16,4.16a2.95,2.95,0,0,1,0,4.16l4.16,4.16a8.84,8.84,0,0,0,0-12.48Z"/><path class="cls-7" d="M253.26,63.74a9.46,9.46,0,1,1,9.45-9.46A9.47,9.47,0,0,1,253.26,63.74Zm0-17.66a8.2,8.2,0,1,0,8.19,8.2A8.21,8.21,0,0,0,253.26,46.08Z"/><path class="cls-7" d="M253.26,57.85a3.57,3.57,0,1,1,3.57-3.57A3.57,3.57,0,0,1,253.26,57.85Zm0-5.88a2.31,2.31,0,1,0,2.31,2.31A2.31,2.31,0,0,0,253.26,52Z"/><path class="cls-7" d="M253.26,52a.63.63,0,0,1-.63-.63V45.45a.63.63,0,0,1,1.26,0v5.89A.63.63,0,0,1,253.26,52Z"/><path class="cls-7" d="M255.34,52.83a.63.63,0,0,1-.45-.19.64.64,0,0,1,0-.89l4.16-4.16a.65.65,0,0,1,.9,0,.64.64,0,0,1,0,.89l-4.17,4.16A.59.59,0,0,1,255.34,52.83Z"/><path class="cls-7" d="M259.5,61.15a.66.66,0,0,1-.45-.18l-4.16-4.16a.65.65,0,0,1,0-.9.64.64,0,0,1,.89,0L260,60.08a.64.64,0,0,1,0,.89A.66.66,0,0,1,259.5,61.15Z"/><path class="cls-5" d="M117.71,89.58V88.32l-2.64-.56a5,5,0,0,0-.23-.86l2-1.81-.63-1.1-2.58.84a4.69,4.69,0,0,0-.63-.63l.84-2.57-1.1-.64-1.81,2a5,5,0,0,0-.86-.23l-.56-2.64h-1.26l-.57,2.64a5.2,5.2,0,0,0-.86.23L105,81l-1.09.64.83,2.57a4.69,4.69,0,0,0-.63.63L101.56,84l-.63,1.1,2,1.81a7.74,7.74,0,0,0-.23.86l-2.64.56v1.26l2.64.57a8.37,8.37,0,0,0,.23.86l-2,1.81.63,1.09,2.57-.83a4.69,4.69,0,0,0,.63.63l-.83,2.57,1.09.63,1.81-2a8.37,8.37,0,0,0,.86.23l.57,2.64h1.26l.56-2.64a7.74,7.74,0,0,0,.86-.23l1.81,2,1.1-.63L113,93.71a4.69,4.69,0,0,0,.63-.63l2.58.83.63-1.09-2-1.81a5.2,5.2,0,0,0,.23-.86Z"/><path class="cls-7" d="M109.52,98.41h-1.26a.63.63,0,0,1-.62-.5l-.48-2.24-.13,0-1.54,1.71a.64.64,0,0,1-.79.12l-1.09-.63a.63.63,0,0,1-.28-.74l.7-2.19-.09-.09-2.19.7a.63.63,0,0,1-.74-.28l-.63-1.09a.64.64,0,0,1,.12-.79l1.71-1.54a.65.65,0,0,0,0-.13l-2.24-.48a.63.63,0,0,1-.5-.62V88.32a.63.63,0,0,1,.5-.61l2.24-.48a.74.74,0,0,0,0-.14l-1.71-1.54a.62.62,0,0,1-.12-.78l.63-1.09a.63.63,0,0,1,.74-.29l2.19.71L104,84l-.71-2.19a.64.64,0,0,1,.28-.74l1.09-.63a.64.64,0,0,1,.79.12L107,82.28l.13,0,.48-2.24a.62.62,0,0,1,.62-.5h1.26a.62.62,0,0,1,.61.5l.48,2.24.14,0,1.54-1.71a.62.62,0,0,1,.78-.12l1.09.63a.63.63,0,0,1,.29.74L113.74,84l.09.09,2.19-.71a.63.63,0,0,1,.74.29l.63,1.09a.62.62,0,0,1-.12.78l-1.71,1.54a.74.74,0,0,1,0,.14l2.25.48a.62.62,0,0,1,.49.61v1.26a.62.62,0,0,1-.49.62l-2.25.48a.5.5,0,0,1,0,.13l1.71,1.54a.64.64,0,0,1,.12.79l-.63,1.09a.64.64,0,0,1-.74.28l-2.19-.7-.09.09.71,2.19a.63.63,0,0,1-.29.74l-1.09.63a.62.62,0,0,1-.78-.12l-1.54-1.71-.14,0-.48,2.24A.63.63,0,0,1,109.52,98.41Zm-.75-1.26H109l.46-2.14a.63.63,0,0,1,.49-.49,4.77,4.77,0,0,0,.78-.21.63.63,0,0,1,.67.18l1.47,1.62.21-.12-.68-2.09a.65.65,0,0,1,.19-.67,6,6,0,0,0,.57-.56.63.63,0,0,1,.67-.19l2.08.68L116,93l-1.62-1.47a.62.62,0,0,1-.17-.68,5.91,5.91,0,0,0,.21-.77.62.62,0,0,1,.48-.5l2.14-.46v-.24l-2.14-.46a.6.6,0,0,1-.48-.49,6.51,6.51,0,0,0-.21-.78.61.61,0,0,1,.17-.67L116,85l-.12-.21-2.08.68a.65.65,0,0,1-.67-.19,7.66,7.66,0,0,0-.57-.57.65.65,0,0,1-.19-.67l.68-2.08-.21-.12-1.47,1.62a.63.63,0,0,1-.67.18,5.13,5.13,0,0,0-.78-.22.6.6,0,0,1-.49-.48L109,80.76h-.24l-.46,2.14a.62.62,0,0,1-.5.48,5,5,0,0,0-.77.22.64.64,0,0,1-.68-.18l-1.47-1.62-.21.12.68,2.08a.63.63,0,0,1-.19.67,6,6,0,0,0-.56.57.65.65,0,0,1-.67.19l-2.09-.68-.12.21,1.62,1.47a.63.63,0,0,1,.18.67,6.51,6.51,0,0,0-.21.78.62.62,0,0,1-.49.49l-2.14.46v.24l2.14.46a.64.64,0,0,1,.49.5,6.37,6.37,0,0,0,.21.77.64.64,0,0,1-.18.68L101.73,93l.12.21,2.09-.68a.63.63,0,0,1,.67.19,4.94,4.94,0,0,0,.56.56.63.63,0,0,1,.19.67L104.68,96l.21.12,1.47-1.62a.64.64,0,0,1,.68-.18,4.66,4.66,0,0,0,.77.21.64.64,0,0,1,.5.49Z"/><path class="cls-11" d="M111.41,89a2.52,2.52,0,1,1-2.52-2.52A2.52,2.52,0,0,1,111.41,89Z"/><path class="cls-7" d="M108.89,92.11A3.16,3.16,0,1,1,112,89,3.17,3.17,0,0,1,108.89,92.11Zm0-5A1.89,1.89,0,1,0,110.78,89,1.89,1.89,0,0,0,108.89,87.06Z"/><rect class="cls-5" x="259.56" y="69.41" width="2.52" height="5.04"/><rect class="cls-9" x="264.61" y="65.63" width="2.52" height="8.83"/><rect class="cls-14" x="269.65" y="61.85" width="2.52" height="12.61"/><path class="cls-7" d="M272.17,77.61H259.56a.63.63,0,0,1-.63-.63.63.63,0,0,1,.63-.63h12.61a.63.63,0,0,1,.63.63A.63.63,0,0,1,272.17,77.61Z"/><path class="cls-7" d="M262.08,75.08h-2.52a.63.63,0,0,1-.63-.63v-5a.63.63,0,0,1,.63-.63h2.52a.63.63,0,0,1,.63.63v5A.63.63,0,0,1,262.08,75.08Zm-1.89-1.26h1.26V70h-1.26Z"/><path class="cls-7" d="M267.13,75.08h-2.52a.63.63,0,0,1-.63-.63V65.63a.63.63,0,0,1,.63-.63h2.52a.63.63,0,0,1,.63.63v8.82A.63.63,0,0,1,267.13,75.08Zm-1.89-1.26h1.26V66.26h-1.26Z"/><path class="cls-7" d="M272.17,75.08h-2.52a.63.63,0,0,1-.63-.63V61.85a.64.64,0,0,1,.63-.64h2.52a.64.64,0,0,1,.63.64v12.6A.63.63,0,0,1,272.17,75.08Zm-1.89-1.26h1.26V62.48h-1.26Z"/><path d="M240,83.28a.63.63,0,0,1,.63-.63h0a.63.63,0,0,1,.63.63h0a.63.63,0,0,1-.63.63h0A.63.63,0,0,1,240,83.28Zm0-2.52a.63.63,0,0,1,.63-.63h0a.63.63,0,0,1,.63.63h0a.63.63,0,0,1-.63.63h0A.63.63,0,0,1,240,80.76Zm0-2.52a.63.63,0,0,1,.63-.63h0a.63.63,0,0,1,.63.63h0a.63.63,0,0,1-.63.63h0A.63.63,0,0,1,240,78.24Zm0-2.53a.63.63,0,0,1,.63-.63h0a.63.63,0,0,1,.63.63h0a.64.64,0,0,1-.63.64h0A.64.64,0,0,1,240,75.71Zm0-2.52a.63.63,0,0,1,.63-.63h0a.63.63,0,0,1,.63.63h0a.63.63,0,0,1-.63.63h0A.63.63,0,0,1,240,73.19Zm0-2.52a.63.63,0,0,1,.63-.63h0a.63.63,0,0,1,.63.63h0a.63.63,0,0,1-.63.63h0A.63.63,0,0,1,240,70.67Zm0-2.52a.63.63,0,0,1,.63-.63h0a.63.63,0,0,1,.63.63h0a.63.63,0,0,1-.63.63h0A.63.63,0,0,1,240,68.15Zm0-2.52a.63.63,0,0,1,.63-.63h0a.63.63,0,0,1,.63.63h0a.63.63,0,0,1-.63.63h0A.63.63,0,0,1,240,65.63Zm0-2.52a.63.63,0,0,1,.63-.63h0a.63.63,0,0,1,.63.63h0a.63.63,0,0,1-.63.63h0A.63.63,0,0,1,240,63.11Zm0-2.53a.63.63,0,0,1,.63-.63h0a.63.63,0,0,1,.63.63h0a.63.63,0,0,1-.63.63h0A.63.63,0,0,1,240,60.58Zm0-2.52a.63.63,0,0,1,.63-.63h0a.63.63,0,0,1,.63.63h0a.63.63,0,0,1-.63.63h0A.63.63,0,0,1,240,58.06Zm0-2.52a.63.63,0,0,1,.63-.63h0a.63.63,0,0,1,.63.63h0a.63.63,0,0,1-.63.63h0A.63.63,0,0,1,240,55.54ZM240,53a.63.63,0,0,1,.63-.63h0a.63.63,0,0,1,.63.63h0a.63.63,0,0,1-.63.63h0A.63.63,0,0,1,240,53Zm0-2.52a.63.63,0,0,1,.63-.63h0a.63.63,0,0,1,.63.63h0a.63.63,0,0,1-.63.63h0A.63.63,0,0,1,240,50.5Z"/></g></g><path class="cls-11" d="M29.92,163.82a3,3,0,0,1,3.18-3.08,3,3,0,0,1,2.29.94l-.56.54a2.22,2.22,0,0,0-1.69-.71,2.31,2.31,0,1,0,0,4.62,2.22,2.22,0,0,0,1.69-.72l.56.54a3,3,0,0,1-2.3.94A3,3,0,0,1,29.92,163.82Z"/><path class="cls-11" d="M40.3,165.32H37.1l-.66,1.51h-.89l2.73-6h.85l2.73,6H41Zm-.3-.69-1.3-2.94-1.3,2.94Z"/><path class="cls-11" d="M46.77,166.83,45.47,165l-.38,0H43.61v1.83h-.86v-6h2.34c1.57,0,2.51.79,2.51,2.1a1.9,1.9,0,0,1-1.32,1.9l1.42,2Zm0-3.92c0-.86-.57-1.35-1.67-1.35H43.61v2.71h1.46C46.17,164.27,46.74,163.77,46.74,162.91Z"/><path class="cls-11" d="M49,160.81h2.53a3,3,0,1,1,0,6H49Zm2.48,5.27a2.27,2.27,0,1,0,0-4.52H49.85v4.52Z"/><path class="cls-11" d="M61.25,160.81v6h-.86v-2.68H56.94v2.68h-.86v-6h.86v2.59h3.45v-2.59Z"/><path class="cls-11" d="M62.56,163.82a3.2,3.2,0,1,1,3.2,3.07A3.06,3.06,0,0,1,62.56,163.82Zm5.53,0a2.34,2.34,0,1,0-2.33,2.31A2.26,2.26,0,0,0,68.09,163.82Z"/><path class="cls-11" d="M70.26,160.81h.86v5.27h3.25v.75H70.26Z"/><path class="cls-11" d="M75.35,160.81h2.54a3,3,0,1,1,0,6H75.35Zm2.49,5.27a2.27,2.27,0,1,0,0-4.52H76.21v4.52Z"/><path class="cls-11" d="M86.81,166.08v.75H82.44v-6h4.25v.75H83.3v1.85h3v.73h-3v1.94Z"/><path class="cls-11" d="M92.22,166.83,90.92,165l-.38,0H89.05v1.83H88.2v-6h2.34c1.56,0,2.51.79,2.51,2.1a1.9,1.9,0,0,1-1.32,1.9l1.42,2Zm0-3.92c0-.86-.58-1.35-1.68-1.35H89.05v2.71h1.46C91.61,164.27,92.19,163.77,92.19,162.91Z"/><path class="cls-11" d="M101.92,160.81v6h-.71l-3.61-4.49v4.49h-.86v-6h.71l3.61,4.49v-4.49Z"/><path class="cls-11" d="M107.54,165.32h-3.19l-.66,1.51h-.89l2.73-6h.85l2.73,6h-.9Zm-.3-.69L106,161.69l-1.3,2.94Z"/><path class="cls-11" d="M115.57,166.83v-4.39l-2.17,3.66H113l-2.17-3.63v4.36H110v-6h.7l2.51,4.23,2.47-4.23h.71v6Z"/><path class="cls-11" d="M122.56,166.08v.75h-4.37v-6h4.25v.75h-3.39v1.85h3v.73h-3v1.94Z"/><path class="cls-11" d="M236.31,170.84c0,.78-.56,1.24-1.49,1.24h-.88v1.08h-.51V169.6h1.39C235.75,169.6,236.31,170.07,236.31,170.84Zm-.51,0c0-.5-.34-.8-1-.8h-.87v1.6h.87C235.46,171.64,235.8,171.35,235.8,170.84Z"/><path class="cls-11" d="M237.06,169.6h.51v3.12h1.92v.44h-2.43Z"/><path class="cls-11" d="M242.36,172.27h-1.89l-.39.89h-.53l1.61-3.56h.51l1.61,3.56h-.53Zm-.18-.41-.77-1.74-.76,1.74Z"/><path class="cls-11" d="M244.34,170h-1.22v-.44h2.95V170h-1.22v3.12h-.51Z"/><path class="cls-11" d="M246.62,169.6h.51v3.56h-.51Z"/><path class="cls-11" d="M251.5,173.16v-2.59l-1.28,2.16H250l-1.28-2.15v2.58h-.49V169.6h.42l1.48,2.5,1.47-2.5H252v3.56Z"/><path class="cls-11" d="M253,171.63v-2h.51v2c0,.78.36,1.14,1,1.14s1-.36,1-1.14v-2h.5v2a1.51,1.51,0,1,1-3,0Z"/><path class="cls-11" d="M260.14,169.6v3.56h-.42l-2.13-2.65v2.65h-.51V169.6h.42l2.13,2.66V169.6Z"/><path class="cls-17" d="M234.69,155c0,2.42,2.16,3.77,3.81,4.58s2.26,1.35,2.26,2.09c0,1.12-1.35,1.62-2.61,1.64a9.14,9.14,0,0,1-4.46-1.06l-.79,3.68a12.88,12.88,0,0,0,4.84.89c4.56,0,7.55-2.25,7.57-5.75,0-4.43-6.14-4.68-6.1-6.66,0-.6.59-1.24,1.85-1.41a8.23,8.23,0,0,1,4.29.76l.76-3.57a11.7,11.7,0,0,0-4.07-.74c-4.3,0-7.32,2.28-7.35,5.55m18.77-5.25A2,2,0,0,0,251.6,151l-6.52,15.57h4.56l.91-2.51h5.58l.53,2.51h4l-3.51-16.81h-3.71m.63,4.54,1.32,6.32H251.8l2.29-6.32m-24.93-4.54-3.6,16.81h4.35l3.6-16.81h-4.35m-6.43,0L218.2,161.2l-1.83-9.72a2,2,0,0,0-2-1.72H207l-.11.49a18,18,0,0,1,4.29,1.43,1.85,1.85,0,0,1,1,1.48l3.46,13.41h4.6l7.05-16.81h-4.57"/><rect class="cls-11" x="190.32" y="18.07" width="24.32" height="16.3" rx="4.38"/><rect class="cls-18" x="196.23" y="22.89" width="1.01" height="6.67"/><rect class="cls-18" x="207.71" y="22.89" width="1.01" height="6.67"/><path class="cls-18" d="M203.9,29.46h-2.85a2,2,0,0,1-1.92-1,4.42,4.42,0,0,1-.44-2.2,4.42,4.42,0,0,1,.44-2.2,2.06,2.06,0,0,1,1.92-1h2.85a2.06,2.06,0,0,1,1.92,1,4.53,4.53,0,0,1,.44,2.2,4.53,4.53,0,0,1-.44,2.2A2,2,0,0,1,203.9,29.46ZM201.15,24c-.71,0-1.44.26-1.44,2.25s.73,2.26,1.44,2.26h2.65c.71,0,1.44-.27,1.44-2.26S204.51,24,203.8,24Z"/><polygon class="cls-11" points="219.69 29.56 218.78 29.56 218.78 23.64 218.17 23.64 218.17 22.72 219.69 22.72 219.69 29.56"/><path class="cls-11" d="M253.27,29.69h-.06l-1.7,0a3.3,3.3,0,0,1-3.22-3.51,3.32,3.32,0,0,1,3.31-3.46l1.66,0a3.2,3.2,0,0,1,3.18,3.43C256.44,28.24,255.14,29.69,253.27,29.69Zm-1.67-6.08a2.39,2.39,0,0,0-2.39,2.54,2.4,2.4,0,0,0,2.31,2.6l1.75,0a2.34,2.34,0,0,0,2.25-2.63,2.27,2.27,0,0,0-2.27-2.51Z"/><polygon class="cls-11" points="260.81 29.58 259.9 29.58 259.9 23.66 259.3 23.66 259.3 22.74 260.81 22.74 260.81 29.58"/><path class="cls-11" d="M226.78,29.75h-.47c-1.59,0-2.56-.18-3.14-.73s-.67-1.5-.67-2.72v-.16c0-1.18,0-2,.55-2.62s1.42-.78,3.31-.79,3,.22,3.63.79a2.08,2.08,0,0,1,.49,1.61h-.92c0-.47,0-.75-.22-1-.37-.37-1.37-.54-3-.53s-2.33.17-2.65.51-.3,1-.3,2v.16c0,1.12.06,1.75.38,2.05a4.53,4.53,0,0,0,2.53.49c1.51,0,2.49-.14,2.9-.54a1.24,1.24,0,0,0,.29-1h.92a2.1,2.1,0,0,1-.57,1.62A4.41,4.41,0,0,1,226.78,29.75Z"/><path class="cls-11" d="M235.76,29.75h-.47c-1.59,0-2.56-.18-3.14-.73s-.66-1.5-.66-2.72c0-2.73.86-3.54,3.85-3.57a4.72,4.72,0,0,1,3.5,1,2.16,2.16,0,0,1,.62,1.6l0,1.39h-7c0,.87.09,1.38.37,1.64a4.55,4.55,0,0,0,2.54.49c1.5,0,2.48-.14,2.9-.54a1.27,1.27,0,0,0,.28-1h.92a2.1,2.1,0,0,1-.57,1.62A4.41,4.41,0,0,1,235.76,29.75Zm-.27-6.12h-.14c-2.38,0-2.87.48-2.94,2.15h6.12v-.49a1.23,1.23,0,0,0-.35-.93A3.9,3.9,0,0,0,235.49,23.63Z"/><rect class="cls-11" x="237.58" y="25.75" width="6.74" height="0.92" transform="translate(213.69 267.04) rotate(-89.75)"/><path class="cls-11" d="M241.4,25.87l-.92,0c.08-2.13,1.13-3.09,3.42-3.09h0a3.72,3.72,0,0,1,2.76.88,2.93,2.93,0,0,1,.68,2.21l-.92,0a2,2,0,0,0-.42-1.54,2.85,2.85,0,0,0-2.1-.6C241.88,23.64,241.45,24.46,241.4,25.87Z"/><path class="cls-11" d="M29.82,102.94a2.16,2.16,0,0,1,2.25-2.18,2.06,2.06,0,0,1,1.57.63l-.28.28a1.72,1.72,0,0,0-1.27-.5,1.78,1.78,0,1,0,0,3.55,1.69,1.69,0,0,0,1.27-.51l.28.29a2.1,2.1,0,0,1-1.57.63A2.16,2.16,0,0,1,29.82,102.94Z"/><path class="cls-11" d="M36.14,101.84v.42H36A1,1,0,0,0,35,103.45v1.64h-.43v-3.23h.42v.64A1.21,1.21,0,0,1,36.14,101.84Z"/><path class="cls-11" d="M39.71,103.61H37a1.19,1.19,0,0,0,1.27,1.13,1.3,1.3,0,0,0,1-.43l.24.28a1.57,1.57,0,0,1-1.24.53,1.6,1.6,0,0,1-1.7-1.64,1.56,1.56,0,0,1,1.58-1.64,1.53,1.53,0,0,1,1.56,1.64Zm-2.7-.32H39.3a1.14,1.14,0,0,0-1.15-1.08A1.12,1.12,0,0,0,37,103.29Z"/><path class="cls-11" d="M43.55,100.54v4.55h-.42v-.64a1.4,1.4,0,0,1-1.25.67,1.64,1.64,0,0,1,0-3.28,1.4,1.4,0,0,1,1.23.64v-1.94Zm-.43,2.94a1.2,1.2,0,1,0-1.2,1.26A1.18,1.18,0,0,0,43.12,103.48Z"/><path class="cls-11" d="M44.66,100.85a.31.31,0,0,1,.32-.31.31.31,0,0,1,.32.3.32.32,0,0,1-.64,0Zm.1,1h.43v3.23h-.43Z"/><path class="cls-11" d="M48.11,104.89a1,1,0,0,1-.69.23.85.85,0,0,1-.94-.94v-2H45.9v-.37h.58v-.7h.44v.7h1v.37h-1v1.93c0,.38.19.59.55.59a.72.72,0,0,0,.48-.17Z"/><path class="cls-11" d="M54,102.27c0,.91-.66,1.47-1.75,1.47H51.05v1.35h-.46V100.8H52.2C53.29,100.8,54,101.35,54,102.27Zm-.45,0c0-.69-.45-1.08-1.31-1.08H51.05v2.15h1.14C53.05,103.34,53.5,102.94,53.5,102.27Z"/><path class="cls-11" d="M54.93,100.8h.46v3.9h2.4v.39H54.93Z"/><path class="cls-11" d="M61.25,103.94H58.86l-.52,1.15h-.47l2-4.29h.45l2,4.29h-.48Zm-.17-.36-1-2.31-1,2.31Z"/><path class="cls-11" d="M63.57,101.19H62.06v-.39h3.48v.39H64v3.9h-.46Z"/><path class="cls-11" d="M66.26,100.8h.45v4.29h-.45Z"/><path class="cls-11" d="M71.7,100.8v4.29h-.38l-2.76-3.48v3.48h-.45V100.8h.37l2.77,3.48V100.8Z"/><path class="cls-11" d="M73.06,103.26V100.8h.45v2.44c0,1,.48,1.48,1.31,1.48s1.32-.46,1.32-1.48V100.8h.44v2.46a1.76,1.76,0,1,1-3.52,0Z"/><path class="cls-11" d="M82.41,100.8v4.29H82v-3.43l-1.68,2.88h-.22l-1.69-2.87v3.42H78V100.8h.37L80.19,104,82,100.8Z"/><path class="cls-11" d="M36,116.36H34.94v1.41H33.42v-1.41H29.8v-1L33,111.05H34.6l-2.94,4h1.81v-1.25h1.47v1.25H36Z"/><path class="cls-11" d="M41.55,115.66c0,1.19-.87,2.23-2.79,2.23a4.64,4.64,0,0,1-2.56-.72l.61-1.19a3.26,3.26,0,0,0,1.91.6c.78,0,1.26-.33,1.26-.87s-.35-.88-1.57-.88H36.7l.34-3.78h4.1v1.25h-2.8l-.11,1.28h.55C40.76,113.58,41.55,114.47,41.55,115.66Z"/><path class="cls-11" d="M47.1,115.72c0,1.13-.87,2.17-2.78,2.17a4.61,4.61,0,0,1-2.56-.72l.6-1.19a3.29,3.29,0,0,0,1.92.6c.78,0,1.26-.32,1.26-.86s-.38-.83-1.26-.83h-.71v-1L45,112.3H42.09v-1.25H46.8v1l-1.52,1.73A1.9,1.9,0,0,1,47.1,115.72Z"/><path class="cls-11" d="M52.8,116.5v1.27H47.72v-1l2.59-2.44c.6-.57.7-.92.7-1.24,0-.53-.36-.84-1.07-.84a1.66,1.66,0,0,0-1.4.67l-1.13-.73a3.14,3.14,0,0,1,2.67-1.24c1.5,0,2.5.77,2.5,2A2.68,2.68,0,0,1,51.45,115l-1.54,1.46Z"/><g class="cls-19"><rect class="cls-20" x="29.5" y="62.46" width="36.2" height="28.09" rx="4.13"/><path class="cls-21" d="M73.52,80.31H54.05V72.76h19v-1h-20V84.83a1.78,1.78,0,0,1-1.78,1.78H44.41a1.78,1.78,0,0,1-1.78-1.78V68.42a1.78,1.78,0,0,1,1.78-1.78h1.78a2.24,2.24,0,0,0,2.24-2.25V62.27h-1v2.12a1.25,1.25,0,0,1-1.25,1.25H44.41a2.79,2.79,0,0,0-2.78,2.78v3.4h-19v1h19v7.49H24.22v1H41.63v3.52a2.79,2.79,0,0,0,2.78,2.78h3.21v3.87h1V87.61h2.65a2.79,2.79,0,0,0,2.78-2.78V81.31H73.52Z"/><path class="cls-22" d="M73.07,79.85H53.59V72.3h19v-1h-20V84.37a1.78,1.78,0,0,1-1.78,1.78H44a1.78,1.78,0,0,1-1.78-1.78V68A1.78,1.78,0,0,1,44,66.18h1.78A2.25,2.25,0,0,0,48,63.93V61.81H47v2.12a1.25,1.25,0,0,1-1.25,1.25H44A2.79,2.79,0,0,0,41.17,68v3.4h-19v1h19v7.49H23.76v1H41.17v3.52A2.78,2.78,0,0,0,44,87.15h3.22V91h1V87.15h2.66a2.77,2.77,0,0,0,2.77-2.78V80.85H73.07Z"/></g><path class="cls-11" d="M70.82,81.14a1,1,0,0,1-.49-.13A1,1,0,0,1,70,79.67c2.3-3.89.18-6,.16-6a1,1,0,0,1,1.34-1.4c.14.12,3.25,3.18.17,8.39A1,1,0,0,1,70.82,81.14Z"/><path class="cls-11" d="M74.45,83a.93.93,0,0,1-.5-.14,1,1,0,0,1-.33-1.34c3.49-5.75.13-9.85.09-9.89A1,1,0,1,1,75.2,70.4s4.29,5.21.09,12.15A1,1,0,0,1,74.45,83Z"/><path class="cls-11" d="M78.35,85.1a1,1,0,0,1-.83-1.5c5-7.88.28-13.72.08-14a1,1,0,1,1,1.49-1.25c.06.07,5.84,7.13.08,16.25A1,1,0,0,1,78.35,85.1Z"/><path class="cls-11" d="M82.17,87.3a.94.94,0,0,1-.48-.13,1,1,0,0,1-.36-1.32c6-10.5.31-18.26.07-18.58A1,1,0,0,1,83,66.09c.06.09,6.73,9.08.07,20.72A1,1,0,0,1,82.17,87.3Z"/></g></g></svg>