<svg width="256" height="61" viewBox="0 0 256 61" fill="none" xmlns="http://www.w3.org/2000/svg">
<path d="M50.49 21.96H40.69C38.069 21.96 35.39 22.945 35.39 30.279C35.39 37.613 38.07 38.592 40.69 38.592H50.49C53.111 38.592 55.79 37.6 55.79 30.279C55.79 22.958 53.111 21.96 50.49 21.96ZM74.265 0.22699H16.914C12.6294 0.22699 8.52031 1.92903 5.49066 4.95868C2.46101 7.98833 0.758972 12.0974 0.758972 16.382V44.169C0.758972 48.4536 2.46101 52.5627 5.49066 55.5923C8.52031 58.622 12.6294 60.324 16.914 60.324H74.265C78.5496 60.324 82.6586 58.622 85.6883 55.5923C88.7179 52.5627 90.42 48.4536 90.42 44.169V16.382C90.42 12.0974 88.7179 7.98833 85.6883 4.95868C82.6586 1.92903 78.5496 0.22699 74.265 0.22699ZM27.353 42.572H23.638V21.7H20.879V17.984H27.353V42.572ZM57.915 38.391C57.2178 39.6262 56.1859 40.6394 54.9381 41.3138C53.6903 41.9883 52.2773 42.2965 50.862 42.203H40.321C38.9056 42.297 37.4925 41.9889 36.2446 41.3145C34.9967 40.64 33.9648 39.6266 33.268 38.391C32.168 36.472 31.636 33.811 31.636 30.279C31.636 26.747 32.17 24.079 33.268 22.154C33.9663 20.9202 34.9986 19.9086 36.2463 19.2354C37.494 18.5623 38.9064 18.2551 40.321 18.349H50.862C52.2765 18.2555 53.6887 18.563 54.9363 19.2361C56.1839 19.9092 57.2163 20.9205 57.915 22.154C59.015 24.079 59.543 26.734 59.543 30.279C59.543 33.824 59.01 36.472 57.915 38.391ZM69.707 42.572H65.992V21.7H63.233V17.984H69.707V42.572Z" fill="white"/>
<path d="M149.274 24.818C147.231 24.7143 145.184 24.9121 143.199 25.405C142.263 25.6694 141.441 26.2375 140.863 27.02V25.038H137.442V42.787H140.863V34.556C140.863 31.381 140.998 30.664 141.763 29.762H141.768C142.859 28.431 144.881 27.913 148.977 27.913C152.543 27.913 154.169 28.275 154.977 29.248L154.984 29.256C155.671 30.041 155.849 31.01 155.849 33.973V42.792H159.268V32.834C159.268 29.572 158.892 28.054 157.774 26.815C156.382 25.3 154.317 24.818 149.274 24.818ZM130.493 21.478H133.913V17.544H130.493V21.478ZM103.744 42.787H107.752V31.8H126.6V28.2H107.752V21.148H127.48V17.548H103.744V42.787ZM130.493 42.787H133.913V25.039H130.493V42.787ZM227.346 36.233C227.246 39.148 226.479 39.881 220.882 39.881C217.369 39.881 215.357 39.666 214.357 39.181H214.349C212.956 38.551 212.361 37.036 212.361 34.117C212.361 31.198 212.713 29.83 213.661 29.031C214.627 28.214 216.287 27.91 219.782 27.91C226.157 27.91 227.139 28.71 227.202 31.48L227.21 31.841H230.751L230.732 31.454C230.614 29.097 230.202 27.889 229.157 26.842C227.721 25.33 225.357 24.82 219.782 24.82C215.631 24.82 213.613 25.12 212.072 25.968C209.811 27.216 208.759 29.747 208.759 33.933C208.759 37.533 209.572 39.948 211.243 41.308C212.816 42.608 215.189 43.008 221.399 43.008C225.899 43.008 227.899 42.508 229.306 41.021C230.389 39.899 230.806 38.606 230.842 36.251L230.848 35.876H227.36L227.346 36.233ZM176.746 35.768C176.746 37.856 176.632 38.384 176.29 38.912C175.79 39.692 174.99 39.918 172.706 39.918C170.306 39.918 169.131 39.627 168.506 38.879C168.046 38.296 168.037 38.279 167.965 35.106V28.092H179.865V25.038H167.965V20.813H164.543V25.038H160.356V28.092H164.543V35.952C164.543 38.711 164.773 39.83 165.57 40.946C166.638 42.41 168.63 43.008 172.445 43.008C173.897 43.063 175.35 42.8943 176.751 42.508C177.741 42.2262 178.601 41.6049 179.179 40.753C179.932 39.643 180.161 38.479 180.161 35.769V34.334H176.741L176.746 35.768ZM253.704 26.768C252.294 25.281 250.177 24.779 245.317 24.779C243.271 24.6795 241.222 24.8817 239.235 25.379C238.284 25.6484 237.444 26.2133 236.835 26.992V17.546H233.415V42.789H236.835V34.411C236.835 31.23 236.972 30.559 237.807 29.624H237.812C238.865 28.4 241.012 27.878 244.99 27.878C248.484 27.878 250.155 28.253 250.949 29.212C251.683 30.112 251.821 30.939 251.821 34.412V42.79H255.241V33.567C255.241 29.427 254.926 28.029 253.707 26.77L253.704 26.768ZM205.668 34.51C205.592 30.341 205.202 28.767 203.853 27.188L203.848 27.181C202.186 25.324 200.089 24.816 194.094 24.816C189.839 24.816 187.912 25.087 186.458 25.891C184.115 27.18 183.07 29.67 183.07 33.966C183.07 37.598 183.91 40.013 185.637 41.348C187.225 42.587 189.804 43.006 195.857 43.006C199.507 43.006 201.801 42.618 203.294 41.748C204.829 40.854 205.571 39.4 205.631 37.172L205.641 36.793H202.1L202.066 37.126C201.96 38.194 201.897 38.39 201.549 38.738L201.534 38.753C200.751 39.634 199.301 39.916 195.565 39.916C190.608 39.916 188.807 39.616 187.859 38.634C187.17 37.914 186.826 36.782 186.728 34.886H205.676L205.668 34.51ZM186.819 31.833C187.132 28.803 188.27 27.906 194.019 27.906C200.557 27.906 201.826 28.849 201.944 31.833H186.819Z" fill="white"/>
</svg>
